<svg width="374" height="94" viewBox="0 0 374 94" fill="none" xmlns="http://www.w3.org/2000/svg">
<path d="M150.958 64.8575C150.958 64.0575 150.458 63.4575 149.358 63.2575V62.7575C149.958 62.7575 151.858 62.8575 152.458 62.8575C152.958 62.8575 154.758 62.7575 155.358 62.7575V63.2575C154.358 63.4575 153.858 64.0575 153.858 64.8575V74.8575C153.858 78.0575 155.558 79.8575 159.258 79.8575C162.358 79.8575 164.858 78.4575 164.858 75.1575V64.7575C164.858 64.0575 164.358 63.4575 163.258 63.1575V62.6575C163.658 62.6575 165.258 62.7575 165.858 62.7575C166.358 62.7575 168.058 62.6575 168.458 62.6575V63.1575C167.358 63.4575 166.858 63.9575 166.858 64.7575V74.5575C166.858 78.9575 164.358 81.4575 158.858 81.4575C153.758 81.4575 151.058 79.1575 151.058 75.0575V64.8575H150.958Z" fill="white"/>
<path d="M172.958 80.6575C174.158 80.4575 174.658 79.8575 174.658 79.0575V65.2575C174.658 64.0575 174.058 63.5575 172.958 63.2575V62.7575C173.558 62.7575 174.558 62.8575 175.058 62.8575C175.558 62.8575 176.258 62.8575 176.758 62.7575L188.758 76.8575V64.7575C188.758 64.0575 188.258 63.4575 187.158 63.1575V62.6575C187.558 62.6575 189.158 62.7575 189.658 62.7575C190.158 62.7575 191.758 62.6575 192.258 62.6575V63.1575C191.158 63.4575 190.558 63.9575 190.558 64.7575V81.3575H189.858C189.358 81.2575 188.558 80.7575 187.258 79.3575L176.458 66.8575V79.0575C176.458 79.7575 176.858 80.3575 178.058 80.6575V81.1575C177.658 81.1575 176.058 81.0575 175.558 81.0575C175.058 81.0575 173.458 81.1575 173.058 81.1575V80.6575H172.958Z" fill="white"/>
<path d="M267.858 76.8575H268.358C268.658 77.8575 269.258 78.8575 270.058 79.3575C270.958 79.9575 272.258 80.2575 273.358 80.2575C275.758 80.2575 277.358 79.0575 277.358 77.1575C277.358 75.1575 275.358 74.1575 273.058 72.9575C271.258 72.0575 267.858 70.6575 267.858 67.3575C267.858 64.2575 270.258 62.3575 273.958 62.3575C276.458 62.3575 277.658 62.9575 279.258 62.8575V66.6575H278.758C278.058 64.4575 276.058 63.6575 273.858 63.6575C271.358 63.6575 270.458 65.0575 270.458 66.4575C270.458 68.4575 272.458 69.5575 274.758 70.5575C277.358 71.6575 280.058 73.1575 280.058 76.3575C280.058 79.3575 277.658 81.5575 273.358 81.5575C270.758 81.5575 269.258 80.8575 267.858 80.6575V76.8575Z" fill="white"/>
<path d="M319.558 73.5575L314.658 65.6575C313.858 64.2575 313.158 63.5575 312.258 63.1575V62.6575C312.958 62.6575 314.758 62.7575 315.258 62.7575C315.758 62.7575 317.658 62.6575 318.358 62.6575V63.1575C317.758 63.2575 317.458 63.5575 317.458 64.0575C317.458 64.4575 317.758 65.0575 318.058 65.4575C318.358 65.9575 321.658 71.4575 321.658 71.4575L325.158 65.4575C325.558 64.8575 325.758 64.2575 325.758 63.8575C325.758 63.4575 325.458 63.2575 324.958 63.1575V62.6575C325.558 62.6575 326.758 62.7575 327.158 62.7575C327.558 62.7575 328.958 62.6575 329.558 62.6575V63.1575C328.258 63.6575 327.358 64.8575 326.558 66.2575L322.158 73.6575M322.358 72.7575V79.0575C322.358 79.6575 322.858 80.4575 323.858 80.6575V81.1575C323.258 81.1575 321.258 81.0575 320.758 81.0575C320.258 81.0575 318.458 81.1575 317.758 81.1575V80.6575C318.858 80.4575 319.358 79.6575 319.358 79.0575V73.0575" fill="white"/>
<path d="M228.557 62.6575H240.057C240.457 62.6575 241.057 62.6575 241.357 62.4575H241.857L241.757 66.1575H241.257C240.857 64.9575 240.357 64.0575 238.157 64.0575H233.157V70.5575H236.957C237.557 70.5575 238.157 70.5575 238.457 70.4575C239.357 70.2575 239.657 69.7575 239.857 69.0575H240.357C240.357 69.6575 240.357 70.8575 240.357 71.2575C240.357 71.6575 240.357 72.9575 240.357 73.5575H239.957C239.757 72.8575 239.357 72.2575 238.557 72.0575C238.257 71.9575 237.557 71.9575 237.057 71.9575H233.257V79.5575H238.657C241.057 79.5575 241.757 78.5575 242.257 77.1575L242.757 77.2575L242.257 81.0575C240.457 80.8575 239.457 80.8575 237.457 80.8575H231.757C231.157 80.8575 229.157 80.9575 228.557 80.9575V80.4575C229.557 80.2575 230.157 79.7575 230.157 78.7575V64.8575C230.157 63.9575 229.657 63.4575 228.557 63.2575V62.6575Z" fill="white"/>
<path d="M199.257 64.9575C199.257 64.0575 198.657 63.4575 197.557 63.2575V62.7575C198.157 62.7575 200.157 62.8575 200.757 62.8575C201.257 62.8575 203.257 62.7575 203.957 62.7575V63.2575C202.857 63.4575 202.257 63.9575 202.257 64.9575V78.9575C202.257 79.8575 202.857 80.4575 203.957 80.6575V81.1575C203.357 81.1575 201.357 81.0575 200.757 81.0575C200.257 81.0575 198.157 81.1575 197.557 81.1575V80.6575C198.657 80.4575 199.257 79.9575 199.257 78.9575V64.9575Z" fill="white"/>
<path d="M286.357 64.9575C286.357 64.0575 285.757 63.4575 284.657 63.2575V62.7575C285.257 62.7575 287.257 62.8575 287.857 62.8575C288.357 62.8575 290.357 62.7575 291.057 62.7575V63.2575C289.957 63.4575 289.357 63.9575 289.357 64.9575V78.9575C289.357 79.8575 289.957 80.4575 291.057 80.6575V81.1575C290.457 81.1575 288.457 81.0575 287.857 81.0575C287.357 81.0575 285.257 81.1575 284.657 81.1575V80.6575C285.757 80.4575 286.357 79.9575 286.357 78.9575V64.9575Z" fill="white"/>
<path d="M302.257 62.7575C295.957 62.7575 294.957 62.6575 293.657 62.5575V66.3575H294.157C294.657 64.6575 295.557 64.2575 296.757 64.2575H300.657V78.9575C300.657 79.9575 300.157 80.4575 298.957 80.6575V81.1575C299.557 81.1575 301.657 81.0575 302.157 81.0575C302.757 81.0575 304.657 81.1575 305.357 81.1575V80.6575C304.257 80.4575 303.657 79.8575 303.657 78.9575V64.3575H307.557C308.857 64.3575 309.757 64.7575 310.157 66.4575H310.657V62.6575C309.557 62.6575 308.557 62.7575 302.257 62.7575Z" fill="white"/>
<path d="M252.058 78.9575C252.058 79.8575 252.658 80.4575 253.758 80.6575V81.1575C253.158 81.1575 251.158 81.0575 250.558 81.0575C250.058 81.0575 248.058 81.1575 247.458 81.1575V80.6575C248.458 80.4575 249.058 79.9575 249.058 78.9575V64.7575C249.058 63.8575 248.558 63.3575 247.458 63.1575V62.6575C248.058 62.6575 250.058 62.7575 250.558 62.7575C251.458 62.7575 254.058 62.5575 255.058 62.5575C259.458 62.5575 261.958 64.3575 261.958 67.4575C261.958 69.9575 260.158 71.5575 257.358 72.2575C257.358 72.2575 257.958 72.6575 258.658 73.3575C259.458 74.2575 261.558 77.2575 262.458 78.3575C263.358 79.4575 264.458 80.5575 265.658 80.6575V81.0575C265.058 81.1575 264.158 81.2575 263.458 81.2575C261.958 81.2575 260.758 80.7575 259.558 79.3575C258.558 78.1575 256.858 75.5575 255.858 74.3575C255.258 73.5575 254.458 72.8575 253.058 72.6575C252.758 72.6575 252.558 72.5575 252.158 72.5575V78.9575H252.058ZM252.058 71.4575C252.658 71.5575 253.558 71.5575 254.358 71.5575C257.858 71.5575 258.858 69.5575 258.858 67.8575C258.858 65.3575 257.158 63.8575 254.158 63.8575C253.558 63.8575 252.658 63.9575 251.958 64.0575V71.4575H252.058Z" fill="white"/>
<path d="M208.358 64.9575C207.958 64.0575 207.358 63.4575 206.258 63.1575V62.6575C206.958 62.6575 209.158 62.7575 209.658 62.7575C210.158 62.7575 212.058 62.6575 212.758 62.6575V63.1575C212.158 63.2575 211.458 63.5575 211.458 64.2575C211.458 64.6575 211.758 65.2575 212.258 66.4575L217.058 77.2575L221.558 66.4575C221.958 65.5575 222.158 64.8575 222.158 64.3575C222.158 63.7575 221.658 63.3575 220.858 63.2575V62.7575C221.458 62.7575 222.958 62.8575 223.358 62.8575C223.758 62.8575 225.458 62.7575 226.158 62.7575V63.2575C225.058 63.5575 224.358 64.1575 223.758 65.6575L217.158 81.2575H215.658L208.358 64.9575Z" fill="white"/>
<path d="M225.258 15.7575C224.458 14.0575 223.358 12.8575 221.358 12.3575V11.3575C222.558 11.3575 226.658 11.4575 227.658 11.4575C228.558 11.4575 232.458 11.3575 233.758 11.3575V12.3575C232.658 12.5575 231.358 13.1575 231.358 14.3575C231.358 15.1575 231.858 16.2575 232.858 18.4575L241.858 38.9575L250.358 18.4575C251.058 16.7575 251.558 15.5575 251.558 14.5575C251.558 13.4575 250.558 12.7575 249.158 12.4575V11.4575C250.258 11.4575 253.058 11.5575 253.858 11.5575C254.658 11.5575 257.958 11.4575 259.158 11.4575V12.3575C257.058 12.9575 255.758 14.1575 254.558 16.9575L241.958 46.5575H239.158L225.258 15.7575Z" fill="white"/>
<path d="M103.858 45.3575C105.458 44.9575 106.658 44.2575 106.658 42.3575V15.2575C106.658 13.4575 105.558 12.7575 103.858 12.2575V11.2575C104.758 11.2575 108.458 11.3575 109.358 11.3575C110.358 11.3575 114.258 11.2575 115.158 11.2575V12.2575C113.558 12.6575 112.258 13.3575 112.258 15.2575V26.5575H132.458V15.2575C132.458 13.3575 131.358 12.6575 129.658 12.2575V11.2575C130.558 11.2575 134.358 11.3575 135.358 11.3575C136.258 11.3575 140.058 11.2575 140.858 11.2575V12.2575C139.258 12.6575 137.958 13.3575 137.958 15.2575V42.3575C137.958 44.1575 139.058 44.8575 140.858 45.3575V46.2575C140.058 46.2575 136.258 46.1575 135.358 46.1575C134.358 46.1575 130.558 46.2575 129.658 46.2575V45.3575C131.258 44.9575 132.458 44.2575 132.458 42.3575V29.5575H112.258V42.3575C112.258 44.2575 113.358 44.8575 115.158 45.3575V46.2575C114.258 46.2575 110.458 46.1575 109.358 46.1575C108.458 46.1575 104.758 46.2575 103.858 46.2575V45.3575Z" fill="white"/>
<path d="M337.657 45.3575C339.757 44.9575 340.957 44.1575 340.957 42.2575V15.2575C340.957 13.3575 339.857 12.6575 337.757 12.2575V11.2575C338.957 11.2575 342.757 11.3575 343.757 11.3575C345.457 11.3575 350.157 10.9575 353.857 10.9575C366.257 10.9575 373.857 17.8575 373.857 28.4575C373.857 38.7575 365.957 46.3575 353.157 46.3575C349.457 46.3575 345.057 46.0575 343.357 46.0575C342.357 46.0575 338.757 46.1575 337.657 46.1575V45.3575ZM346.557 43.5575C347.857 43.7575 350.157 43.9575 352.057 43.9575C362.457 43.9575 367.957 37.6575 367.957 28.8575C367.957 19.7575 362.257 13.3575 352.457 13.3575C350.457 13.3575 347.957 13.4575 346.657 13.7575V43.5575H346.557Z" fill="white"/>
<path d="M196.958 42.1575C196.958 43.9575 198.058 44.9575 200.158 45.3575V46.3575C198.958 46.3575 195.158 46.2575 194.058 46.2575C193.158 46.2575 189.358 46.3575 188.258 46.3575V45.3575C190.158 44.9575 191.358 44.0575 191.358 42.1575V15.3575C191.358 13.7575 190.458 12.6575 188.258 12.2575V11.2575C189.458 11.2575 193.158 11.3575 194.158 11.3575C195.858 11.3575 200.758 11.0575 202.658 11.0575C211.058 11.0575 215.658 14.5575 215.658 20.4575C215.658 25.1575 212.158 28.2575 206.858 29.5575C206.858 29.5575 208.058 30.2575 209.258 31.6575C210.758 33.3575 214.758 39.2575 216.458 41.2575C218.058 43.2575 220.258 45.4575 222.458 45.5575V46.3575C221.358 46.5575 219.658 46.7575 218.358 46.7575C215.558 46.7575 213.258 45.7575 211.058 43.0575C209.158 40.7575 205.858 35.8575 203.958 33.3575C202.758 31.8575 201.258 30.5575 198.558 30.1575C198.058 30.0575 197.558 29.9575 196.958 29.9575V42.1575ZM196.958 27.9575C198.058 28.0575 199.658 28.1575 201.358 28.1575C207.858 28.1575 209.958 24.3575 209.958 21.0575C209.958 16.3575 206.858 13.4575 201.058 13.4575C199.858 13.4575 198.158 13.5575 196.958 13.8575V27.9575Z" fill="white"/>
<path d="M307.158 42.1575C307.158 43.9575 308.258 44.9575 310.358 45.3575V46.3575C309.158 46.3575 305.358 46.2575 304.258 46.2575C303.358 46.2575 299.558 46.3575 298.458 46.3575V45.3575C300.358 44.9575 301.558 44.0575 301.558 42.1575V15.3575C301.558 13.7575 300.658 12.6575 298.458 12.2575V11.2575C299.658 11.2575 303.258 11.3575 304.358 11.3575C306.058 11.3575 310.958 11.0575 312.858 11.0575C321.258 11.0575 325.858 14.5575 325.858 20.4575C325.858 25.1575 322.358 28.2575 317.058 29.5575C317.058 29.5575 318.258 30.2575 319.458 31.6575C320.958 33.3575 325.058 39.2575 326.658 41.2575C328.358 43.2575 330.458 45.4575 332.658 45.5575V46.3575C331.558 46.5575 329.858 46.7575 328.558 46.7575C325.658 46.7575 323.458 45.7575 321.258 43.0575C319.358 40.7575 316.058 35.8575 314.158 33.3575C312.958 31.8575 311.458 30.5575 308.758 30.1575C308.258 30.0575 307.758 29.9575 307.158 29.9575V42.1575ZM307.158 27.9575C308.258 28.0575 309.858 28.1575 311.558 28.1575C318.058 28.1575 320.158 24.3575 320.158 21.0575C320.158 16.3575 317.058 13.4575 311.258 13.4575C310.058 13.4575 308.358 13.5575 307.158 13.8575V27.9575Z" fill="white"/>
<path d="M146.257 45.3575C148.457 44.8575 149.657 43.4575 150.457 41.4575L161.657 14.5575C162.157 13.4575 162.657 11.1575 162.657 11.1575H165.757C165.757 11.1575 166.357 13.4575 166.757 14.5575L178.557 41.5575C179.357 43.4575 180.357 44.7575 182.657 45.3575V46.2575C181.357 46.2575 177.357 46.1575 176.457 46.1575C175.557 46.1575 171.757 46.2575 170.457 46.2575V45.3575C172.157 44.9575 172.757 44.0575 172.757 43.2575C172.757 42.5575 172.457 41.7575 172.057 40.8575L169.557 35.0575H156.557L154.257 40.8575C153.957 41.5575 153.657 42.4575 153.657 43.0575C153.657 44.0575 154.157 44.7575 156.157 45.3575V46.2575C154.957 46.2575 151.957 46.1575 151.257 46.1575L146.157 46.2575L146.257 45.3575ZM168.557 32.2575L162.957 19.2575L157.757 32.2575H168.557Z" fill="white"/>
<path d="M257.157 45.3575C259.357 44.8575 260.557 43.4575 261.357 41.4575L272.557 14.5575C273.057 13.4575 273.557 11.1575 273.557 11.1575H276.657C276.657 11.1575 277.257 13.4575 277.657 14.5575L289.457 41.5575C290.257 43.4575 291.257 44.7575 293.557 45.3575V46.2575C292.257 46.2575 288.257 46.1575 287.357 46.1575C286.457 46.1575 282.657 46.2575 281.357 46.2575V45.3575C283.057 44.9575 283.657 44.0575 283.657 43.2575C283.657 42.5575 283.357 41.7575 283.057 40.8575L280.557 35.0575H267.557L265.257 40.8575C264.957 41.5575 264.657 42.4575 264.657 43.0575C264.657 44.0575 265.157 44.7575 267.157 45.3575V46.2575C265.957 46.2575 262.957 46.1575 262.257 46.1575L257.157 46.2575V45.3575ZM279.457 32.2575L273.857 19.2575L268.657 32.2575H279.457Z" fill="white"/>
<path d="M0.557495 0.457504H78.5575V29.9575C78.5575 43.4575 73.5575 72.1575 39.8575 93.4575C39.8575 93.4575 3.3575 78.1575 0.557495 29.9575V0.457504Z" fill="#A51C30"/>
<path d="M0.45752 0.457504H78.4575V29.9575C78.4575 43.4575 73.4575 72.0575 39.7575 93.4575C39.7575 93.4575 3.25752 78.2575 0.45752 29.9575V0.457504Z" stroke="black" stroke-width="0.915"/>
<path d="M59.6575 38.3575C59.6575 38.3575 58.9575 40.5575 55.8575 38.2575L45.2575 37.9575C45.2575 37.9575 43.8575 38.3575 43.6575 36.9575C43.6575 36.9575 43.9575 34.0575 43.7575 33.7575C43.7575 33.7575 43.8575 32.9575 42.4575 32.9575C42.4575 32.9575 40.2575 33.2575 40.2575 31.3575C40.2575 31.3575 39.8575 29.3575 42.8575 29.3575C42.8575 29.3575 43.7575 29.7575 43.8575 28.5575C43.8575 28.5575 43.7575 20.3575 43.7575 19.7575C43.7575 19.7575 44.0575 18.9575 42.5575 18.8575C42.5575 18.8575 40.4575 19.2575 40.2575 17.9575C40.2575 17.9575 40.1575 15.8575 41.5575 15.7575C41.5575 15.7575 43.2575 15.8575 43.5575 15.4575C43.5575 15.4575 43.9575 15.6575 43.8575 14.1575L43.9575 11.5575C43.9575 11.5575 44.1575 10.8575 45.2575 10.9575C45.2575 10.9575 47.2575 11.0575 47.4575 10.8575C47.4575 10.8575 47.8575 10.2575 48.0575 10.0575C48.0575 10.0575 49.0575 9.9575 49.2575 10.2575C49.2575 10.2575 50.7575 11.2575 56.5575 10.8575C56.5575 10.8575 57.4575 10.8575 57.6575 11.1575C57.6575 11.1575 58.7575 11.9575 59.3575 11.0575C59.3575 11.0575 60.2575 10.8575 63.1575 10.9575C63.1575 10.9575 66.2575 11.7575 68.4575 10.0575L69.1575 10.1575C69.1575 10.1575 70.0575 11.6575 70.6575 11.1575C70.6575 11.1575 72.5575 10.9575 72.8575 11.3575C72.8575 11.3575 73.4575 12.2575 73.1575 14.7575C73.1575 14.7575 72.7575 15.8575 74.6575 15.8575C74.6575 15.8575 76.7575 15.4575 76.4575 17.4575C76.4575 17.4575 77.0575 19.6575 73.5575 19.3575C73.5575 19.3575 73.1575 19.9575 73.1575 20.4575C73.1575 20.4575 73.0575 27.6575 73.0575 28.4575C73.0575 28.4575 72.9575 29.5575 74.5575 29.5575C74.5575 29.5575 76.5575 29.4575 76.6575 31.2575C76.6575 31.2575 76.9575 33.6575 73.9575 33.2575C73.9575 33.2575 73.0575 33.3575 72.9575 33.9575L72.8575 37.1575C72.8575 37.1575 72.9575 38.7575 71.1575 38.3575C70.8575 38.3575 61.2575 38.5575 60.4575 38.2575C60.1575 38.1575 59.7575 38.0575 59.6575 38.3575Z" fill="white"/>
<path d="M39.1576 48.9575C39.1576 48.9575 39.5576 48.7575 39.7576 48.4575C39.7576 48.4575 41.0576 48.3575 41.2576 48.1575L45.4576 48.4575C45.4576 48.4575 49.5576 48.7575 51.3576 47.4575C51.3576 47.4575 51.9576 47.4575 52.4576 47.6575C52.4576 47.6575 53.3576 47.8575 53.5576 48.2575L55.9576 48.1575C55.9576 48.1575 57.3576 48.5575 57.2576 49.4575V50.5575C57.2576 50.5575 56.9576 52.8575 57.6576 52.9575H59.4576C59.4576 52.9575 60.9576 53.6575 60.7576 54.5575C60.7576 54.5575 60.8576 55.8575 59.4576 56.0575C59.4576 56.0575 58.1576 56.4575 57.6576 56.3575C57.6576 56.3575 57.2576 56.9575 57.1576 57.6575L57.0576 65.9575C57.0576 65.9575 56.9576 66.8575 58.2576 66.7575C58.2576 66.7575 60.2576 66.5575 60.7576 67.6575C60.7576 67.6575 61.2576 69.4575 60.2576 69.7575L59.4576 70.1575L57.8576 70.4575C57.8576 70.4575 57.1576 70.5575 57.0576 71.7575V73.9575C57.0576 73.9575 57.1576 75.4575 55.9576 75.4575L54.1576 75.5575C54.1576 75.5575 53.7576 75.9575 52.8576 75.6575C52.8576 75.6575 42.0576 75.8575 41.7576 75.7575L40.4576 75.9575C40.4576 75.9575 39.0576 77.2575 37.9576 76.2575L37.0576 75.5575C37.0576 75.5575 36.4576 75.6575 36.1576 75.6575C35.8576 75.5575 24.2576 75.7575 24.2576 75.7575C24.2576 75.7575 21.7576 76.0575 21.5576 75.1575C21.5576 75.1575 21.2576 71.9575 21.3576 71.5575C21.3576 71.5575 21.3576 70.6575 20.7576 70.5575C20.7576 70.5575 18.2576 70.4575 18.2576 70.1575C18.2576 70.1575 16.9576 69.2575 17.3576 68.2575C17.3576 68.2575 17.7576 66.9575 19.1576 66.8575C19.1576 66.8575 21.1576 67.1575 21.1576 66.5575C21.1576 66.5575 21.2576 66.1575 21.2576 65.5575C21.2576 65.5575 21.3576 58.0575 21.3576 57.5575C21.3576 57.5575 21.5576 56.5575 20.7576 56.5575C20.7576 56.5575 19.8576 56.8575 19.2576 56.4575C19.2576 56.4575 17.7576 56.5575 17.4576 55.3575C17.4576 55.3575 17.1576 54.5575 17.5576 53.9575C17.5576 53.9575 18.2576 52.5575 20.2576 53.0575C20.2576 53.0575 21.3576 53.3575 21.5576 52.5575L21.4576 49.5575C21.4576 49.5575 21.1576 48.7575 22.7576 48.2575C22.7576 48.2575 24.7576 48.8575 25.4576 47.8575C25.4576 47.8575 26.1576 46.4575 26.7576 47.4575C26.7576 47.4575 27.9576 48.5575 31.2576 48.4575C31.2576 48.4575 36.9576 48.0575 37.0576 48.2575C37.0576 48.2575 38.4576 48.4575 38.8576 48.8575L39.1576 48.9575Z" fill="white"/>
<path d="M21.9575 38.3575C21.9575 38.3575 21.2575 40.5575 18.1575 38.2575L7.55752 38.0575C7.55752 38.0575 6.15752 38.4575 5.95752 37.0575C5.95752 37.0575 6.25752 34.1575 6.05752 33.8575C6.05752 33.8575 6.15752 33.0575 4.75752 33.0575C4.75752 33.0575 2.65752 33.3575 2.55752 31.4575C2.55752 31.4575 2.15752 29.4575 5.15752 29.4575C5.15752 29.4575 6.05752 29.8575 6.15752 28.6575C6.15752 28.6575 6.05752 20.4575 6.05752 19.7575C6.05752 19.7575 6.35752 18.9575 4.85752 18.8575C4.85752 18.8575 2.75752 19.2575 2.55752 17.8575C2.55752 17.8575 2.45752 15.7575 3.85752 15.6575C3.85752 15.6575 5.55752 15.7575 5.85752 15.3575C5.85752 15.3575 6.25752 15.5575 6.15752 14.0575L6.25752 11.4575C6.25752 11.4575 6.45752 10.7575 7.55752 10.8575C7.55752 10.8575 9.55752 10.9575 9.75752 10.7575C9.75752 10.7575 10.1575 10.1575 10.3575 9.95751C10.3575 9.95751 11.3575 9.85751 11.5575 10.1575C11.5575 10.1575 13.0575 11.1575 18.8575 10.7575C18.8575 10.7575 19.7575 10.7575 19.9575 11.0575C19.9575 11.0575 21.0575 11.8575 21.6575 10.9575C21.6575 10.9575 22.5575 10.7575 25.4575 10.8575C25.4575 10.8575 28.5575 11.6575 30.6575 9.95751L31.3575 10.0575C31.3575 10.0575 32.2575 11.5575 32.8575 11.0575C32.8575 11.0575 34.7575 10.8575 35.0575 11.2575C35.0575 11.2575 35.6575 12.1575 35.3575 14.6575C35.3575 14.6575 34.9575 15.7575 36.8575 15.7575C36.8575 15.7575 38.9575 15.3575 38.6575 17.3575C38.6575 17.3575 39.2575 19.5575 35.7575 19.2575C35.7575 19.2575 35.3575 19.8575 35.3575 20.3575C35.3575 20.3575 35.2575 27.5575 35.2575 28.3575C35.2575 28.3575 35.1575 29.4575 36.7575 29.4575C36.7575 29.4575 38.7575 29.3575 38.8575 31.1575C38.8575 31.1575 39.1575 33.5575 36.1575 33.1575C36.1575 33.1575 35.2575 33.2575 35.1575 33.8575L34.9575 37.0575C34.9575 37.0575 35.0575 38.6575 33.2575 38.2575C32.9575 38.2575 23.3575 38.4575 22.5575 38.1575C22.5575 38.1575 22.1575 38.0575 21.9575 38.3575Z" fill="white"/>
<path d="M59.6575 38.3575C59.6575 38.3575 58.9575 40.5575 55.8575 38.2575L45.2575 37.9575C45.2575 37.9575 43.8575 38.3575 43.6575 36.9575C43.6575 36.9575 43.9575 34.0575 43.7575 33.7575C43.7575 33.7575 43.8575 32.9575 42.4575 32.9575C42.4575 32.9575 40.2575 33.2575 40.2575 31.3575C40.2575 31.3575 39.8575 29.3575 42.8575 29.3575C42.8575 29.3575 43.7575 29.7575 43.8575 28.5575C43.8575 28.5575 43.7575 20.3575 43.7575 19.7575C43.7575 19.7575 44.0575 18.9575 42.5575 18.8575C42.5575 18.8575 40.4575 19.2575 40.2575 17.9575C40.2575 17.9575 40.1575 15.8575 41.5575 15.7575C41.5575 15.7575 43.2575 15.8575 43.5575 15.4575C43.5575 15.4575 43.9575 15.6575 43.8575 14.1575L43.9575 11.5575C43.9575 11.5575 44.1575 10.8575 45.2575 10.9575C45.2575 10.9575 47.2575 11.0575 47.4575 10.8575C47.4575 10.8575 47.8575 10.2575 48.0575 10.0575C48.0575 10.0575 49.0575 9.9575 49.2575 10.2575C49.2575 10.2575 50.7575 11.2575 56.5575 10.8575C56.5575 10.8575 57.4575 10.8575 57.6575 11.1575C57.6575 11.1575 58.7575 11.9575 59.3575 11.0575C59.3575 11.0575 60.2575 10.8575 63.1575 10.9575C63.1575 10.9575 66.2575 11.7575 68.4575 10.0575L69.1575 10.1575C69.1575 10.1575 70.0575 11.6575 70.6575 11.1575C70.6575 11.1575 72.5575 10.9575 72.8575 11.3575C72.8575 11.3575 73.4575 12.2575 73.1575 14.7575C73.1575 14.7575 72.7575 15.8575 74.6575 15.8575C74.6575 15.8575 76.7575 15.4575 76.4575 17.4575C76.4575 17.4575 77.0575 19.6575 73.5575 19.3575C73.5575 19.3575 73.1575 19.9575 73.1575 20.4575C73.1575 20.4575 73.0575 27.6575 73.0575 28.4575C73.0575 28.4575 72.9575 29.5575 74.5575 29.5575C74.5575 29.5575 76.5575 29.4575 76.6575 31.2575C76.6575 31.2575 76.9575 33.6575 73.9575 33.2575C73.9575 33.2575 73.0575 33.3575 72.9575 33.9575L72.8575 37.1575C72.8575 37.1575 72.9575 38.7575 71.1575 38.3575C70.8575 38.3575 61.2575 38.5575 60.4575 38.2575C60.1575 38.1575 59.7575 38.0575 59.6575 38.3575Z" fill="#1E1E1E"/>
<path d="M59.6575 38.3575C59.6575 38.3575 58.9575 40.5575 55.8575 38.2575L45.2575 37.9575C45.2575 37.9575 43.8575 38.3575 43.6575 36.9575C43.6575 36.9575 43.9575 34.0575 43.7575 33.7575C43.7575 33.7575 43.8575 32.9575 42.4575 32.9575C42.4575 32.9575 40.2575 33.2575 40.2575 31.3575C40.2575 31.3575 39.8575 29.3575 42.8575 29.3575C42.8575 29.3575 43.7575 29.7575 43.8575 28.5575C43.8575 28.5575 43.7575 20.3575 43.7575 19.7575C43.7575 19.7575 44.0575 18.9575 42.5575 18.8575C42.5575 18.8575 40.4575 19.2575 40.2575 17.9575C40.2575 17.9575 40.1575 15.8575 41.5575 15.7575C41.5575 15.7575 43.2575 15.8575 43.5575 15.4575C43.5575 15.4575 43.9575 15.6575 43.8575 14.1575L43.9575 11.5575C43.9575 11.5575 44.1575 10.8575 45.2575 10.9575C45.2575 10.9575 47.2575 11.0575 47.4575 10.8575C47.4575 10.8575 47.8575 10.2575 48.0575 10.0575C48.0575 10.0575 49.0575 9.9575 49.2575 10.2575C49.2575 10.2575 50.7575 11.2575 56.5575 10.8575C56.5575 10.8575 57.4575 10.8575 57.6575 11.1575C57.6575 11.1575 58.7575 11.9575 59.3575 11.0575C59.3575 11.0575 60.2575 10.8575 63.1575 10.9575C63.1575 10.9575 66.2575 11.7575 68.4575 10.0575L69.1575 10.1575C69.1575 10.1575 70.0575 11.6575 70.6575 11.1575C70.6575 11.1575 72.5575 10.9575 72.8575 11.3575C72.8575 11.3575 73.4575 12.2575 73.1575 14.7575C73.1575 14.7575 72.7575 15.8575 74.6575 15.8575C74.6575 15.8575 76.7575 15.4575 76.4575 17.4575C76.4575 17.4575 77.0575 19.6575 73.5575 19.3575C73.5575 19.3575 73.1575 19.9575 73.1575 20.4575C73.1575 20.4575 73.0575 27.6575 73.0575 28.4575C73.0575 28.4575 72.9575 29.5575 74.5575 29.5575C74.5575 29.5575 76.5575 29.4575 76.6575 31.2575C76.6575 31.2575 76.9575 33.6575 73.9575 33.2575C73.9575 33.2575 73.0575 33.3575 72.9575 33.9575L72.8575 37.1575C72.8575 37.1575 72.9575 38.7575 71.1575 38.3575C70.8575 38.3575 61.2575 38.5575 60.4575 38.2575C60.1575 38.1575 59.7575 38.0575 59.6575 38.3575Z" stroke="black" stroke-width="0.2189"/>
<path d="M47.6575 12.2575C47.6575 12.2575 47.7575 13.5575 47.7575 13.8575C47.7575 14.1575 47.5575 32.1575 47.5575 32.1575C47.5575 32.1575 47.7575 33.5575 46.5575 34.2575C46.5575 34.2575 46.2575 34.3575 46.1575 33.4575L46.2575 14.4575C46.3575 14.4575 46.4575 12.1575 47.6575 12.2575Z" fill="white"/>
<path d="M47.6575 12.2575C47.6575 12.2575 47.7575 13.5575 47.7575 13.8575C47.7575 14.1575 47.5575 32.1575 47.5575 32.1575C47.5575 32.1575 47.7575 33.5575 46.5575 34.2575C46.5575 34.2575 46.2575 34.3575 46.1575 33.4575L46.2575 14.4575C46.3575 14.4575 46.4575 12.1575 47.6575 12.2575Z" stroke="black" stroke-width="0.2305"/>
<path d="M45.5575 34.4575C45.5575 34.4575 45.6576 16.6575 45.6576 16.3575C45.5576 16.0575 45.7575 16.6575 45.7575 16.6575C45.7575 16.6575 45.5576 13.5575 46.3576 12.2575C46.3576 12.2575 46.0576 11.1575 44.6576 12.5575L44.5575 14.9575C44.5575 14.9575 44.5575 16.4575 43.2575 16.3575C43.2575 16.3575 41.7575 16.2575 41.0575 16.9575C41.0575 16.9575 40.6576 18.3575 42.1576 18.0575C42.1576 18.0575 44.4575 18.0575 44.5575 18.9575L44.4575 28.5575C44.4575 28.5575 44.9576 30.1575 43.1576 30.1575C43.1576 30.1575 40.9575 30.0575 41.0575 31.3575C41.0575 31.3575 41.4576 32.4575 43.3576 32.1575C43.3576 32.1575 44.6576 32.3575 44.6576 33.6575V36.0575C44.6576 36.0575 44.5575 37.0575 45.7575 37.0575H55.6575C55.6575 37.0575 56.1575 37.1575 56.1575 36.4575C56.1575 36.4575 56.0576 35.9575 55.3576 35.9575H47.0575C47.0575 35.9575 45.6575 36.3575 45.5575 34.4575Z" fill="white"/>
<path d="M47.4575 34.3575C47.4575 34.3575 47.1575 35.2575 48.1575 35.0575H54.6575L56.4575 35.4575C56.4575 35.4575 58.2575 35.0575 56.4575 33.9575C56.4575 33.9575 50.6575 34.0575 50.1575 33.8575C50.1575 33.8575 48.9575 33.5575 48.6575 33.4575C48.6575 33.5575 48.0575 33.3575 47.4575 34.3575Z" fill="white"/>
<path d="M47.4575 34.3575C47.4575 34.3575 47.1575 35.2575 48.1575 35.0575H54.6575L56.4575 35.4575C56.4575 35.4575 58.2575 35.0575 56.4575 33.9575C56.4575 33.9575 50.6575 34.0575 50.1575 33.8575C50.1575 33.8575 48.9575 33.5575 48.6575 33.4575C48.6575 33.5575 48.0575 33.3575 47.4575 34.3575Z" stroke="black" stroke-width="0.2305"/>
<path d="M58.2575 35.2575C58.2575 35.2575 57.0575 35.2575 57.1575 36.8575C57.1575 36.8575 57.2575 38.0575 58.5575 38.0575C58.5575 38.0575 59.6575 37.8575 59.5575 36.5575C59.5575 36.6575 58.8575 35.0575 58.2575 35.2575Z" fill="white"/>
<path d="M59.1575 34.6575C59.1575 34.6575 59.7575 34.0575 60.0575 34.0575C60.0575 34.0575 66.3575 34.6575 67.4575 33.8575C67.4575 33.8575 68.4575 33.6575 68.6575 33.8575C68.6575 33.8575 69.5575 34.6575 69.5575 35.0575C69.5575 35.0575 69.4575 35.6575 68.3575 35.2575C68.3575 35.2575 61.2575 35.3575 60.8575 35.3575C60.9575 35.3575 58.9575 35.7575 59.1575 34.6575Z" fill="white"/>
<path d="M59.1575 34.6575C59.1575 34.6575 59.7575 34.0575 60.0575 34.0575C60.0575 34.0575 66.3575 34.6575 67.4575 33.8575C67.4575 33.8575 68.4575 33.6575 68.6575 33.8575C68.6575 33.8575 69.5575 34.6575 69.5575 35.0575C69.5575 35.0575 69.4575 35.6575 68.3575 35.2575C68.3575 35.2575 61.2575 35.3575 60.8575 35.3575C60.9575 35.3575 58.9575 35.7575 59.1575 34.6575Z" stroke="black" stroke-width="0.2305"/>
<path d="M59.9575 36.6575C59.9575 36.6575 59.9575 36.1575 60.8575 36.1575L69.7575 36.0575C69.7575 36.0575 70.5575 36.4575 70.5575 34.9575C70.5575 34.9575 70.8575 28.0575 70.9575 20.4575C70.9575 18.1575 71.0575 15.8575 70.9575 13.6575C70.9575 13.6575 70.7575 12.7575 70.5575 12.5575C70.5575 12.5575 70.5575 11.5575 71.6575 11.9575C71.6575 11.9575 72.5575 12.0575 72.3575 13.4575L72.4575 15.6575C72.4575 15.6575 72.2575 16.6575 73.9575 16.3575C73.9575 16.3575 75.6575 16.6575 75.7575 17.2575C75.7575 17.2575 76.2575 18.5575 74.2575 18.3575H72.7575C72.7575 18.3575 72.1575 18.7575 72.3575 19.4575L71.9575 28.7575C71.9575 28.7575 71.8575 30.3575 73.3575 30.2575C73.3575 30.2575 74.9575 30.1575 75.2575 30.6575C75.2575 30.6575 76.3575 32.2575 73.9575 32.1575C73.9575 32.1575 72.4575 32.0575 72.1575 32.3575C72.1575 32.3575 71.8575 32.6575 71.7575 35.6575C71.7575 35.6575 71.8575 37.4575 70.5575 37.2575C70.5575 37.2575 61.7575 37.3575 60.9575 37.1575C60.9575 37.1575 60.1575 37.3575 59.9575 36.6575Z" fill="white"/>
<path d="M48.6575 11.7575L48.4575 32.0575C48.4575 32.0575 48.3575 32.9575 49.9575 33.1575C49.9575 33.1575 51.7575 33.3575 52.2575 33.1575C52.2575 33.1575 53.4575 33.0575 56.5575 33.2575C56.5575 33.2575 57.3575 34.0575 57.3575 33.0575C57.3575 33.0575 57.8575 16.6575 57.6575 13.1575C57.6575 13.1575 57.5575 11.6575 56.5575 11.6575C56.5575 11.6575 51.7575 12.0575 51.3575 11.6575L49.4575 11.1575C49.2575 11.1575 48.5575 11.2575 48.6575 11.7575Z" fill="white"/>
<path d="M58.5575 12.7575C58.5575 12.7575 58.3575 22.2575 58.4575 22.6575L58.3575 30.6575L58.0575 33.4575C58.0575 33.4575 58.4575 34.0575 58.7575 33.6575C58.7575 33.6575 60.7575 33.1575 62.0575 33.3575C62.0575 33.3575 66.1575 33.7575 66.9575 33.0575C66.9575 33.0575 67.5575 33.3575 67.7575 32.3575C67.7575 32.3575 67.9575 14.6575 67.8575 14.3575C67.8575 14.3575 68.0575 11.8575 67.9575 11.5575C67.9575 11.5575 67.8575 10.9575 66.8575 11.4575C66.8575 11.4575 66.9575 11.9575 60.9575 11.7575C60.9575 11.7575 58.7575 11.7575 58.5575 12.7575Z" fill="white"/>
<path d="M68.6575 12.4575L68.5575 32.4575C68.5575 32.4575 69.0575 34.2575 69.8575 34.0575C69.8575 34.0575 69.9575 33.6575 70.0575 33.0575L70.3575 14.0575C70.3575 13.9575 69.7575 10.9575 68.6575 12.4575Z" fill="white"/>
<path d="M68.6575 12.4575L68.5575 32.4575C68.5575 32.4575 69.0575 34.2575 69.8575 34.0575C69.8575 34.0575 69.9575 33.6575 70.0575 33.0575L70.3575 14.0575C70.3575 13.9575 69.7575 10.9575 68.6575 12.4575Z" stroke="black" stroke-width="0.2305"/>
<path d="M60.8575 18.4575C60.6575 17.9575 61.9575 17.8575 61.9575 17.8575L62.5575 17.9575C62.9575 17.8575 63.4575 18.0575 63.4575 18.0575C63.8575 18.7575 63.1575 19.1575 63.1575 19.1575L62.9575 20.0575C62.8575 20.7575 62.9575 26.7575 62.9575 26.7575C63.0575 27.0575 63.5575 27.6575 63.5575 27.6575C63.5575 28.2575 62.8575 28.0575 62.8575 28.0575L61.0575 28.1575C60.4575 28.0575 60.6575 27.4575 60.6575 27.4575C61.2575 27.1575 61.4575 25.9575 61.4575 25.9575V19.6575L60.8575 18.4575Z" fill="#1E1E1E"/>
<path d="M52.3575 24.3575L52.2575 26.3575L52.8575 27.2575C53.2575 27.7575 52.5575 28.1575 52.5575 28.1575L50.5575 27.9575C50.1575 27.7575 50.5575 27.1575 50.5575 27.1575C51.0575 26.8575 51.1575 26.0575 51.1575 26.0575L51.0575 22.3575L51.1575 19.6575C51.1575 19.3575 50.6575 18.7575 50.6575 18.7575C50.2575 18.6575 50.3575 18.1575 50.3575 18.1575C50.4575 17.8575 51.5575 18.0575 51.5575 18.0575H54.2575C56.7575 18.8575 56.4575 20.7575 56.4575 20.7575C56.6575 22.5575 54.6575 23.3575 54.6575 23.3575L54.5575 24.3575L56.3575 27.2575C56.6575 27.5575 56.6575 27.7575 56.6575 27.7575C56.3575 28.4575 55.3575 27.7575 55.3575 27.7575L52.9575 24.1575C52.7575 23.8575 52.3575 24.3575 52.3575 24.3575ZM52.4575 19.3575C52.5575 20.7575 52.5575 22.6575 52.5575 22.6575C53.7575 23.5575 54.4575 22.2575 54.4575 22.2575C56.0575 20.7575 54.4575 19.3575 54.1575 18.9575C53.8575 18.5575 52.6575 18.8575 52.6575 18.8575L52.4575 19.3575Z" fill="#1E1E1E"/>
<path d="M39.1576 48.9575C39.1576 48.9575 39.5576 48.7575 39.7576 48.4575C39.7576 48.4575 41.0576 48.3575 41.2576 48.1575L45.4576 48.4575C45.4576 48.4575 49.5576 48.7575 51.3576 47.4575C51.3576 47.4575 51.9576 47.4575 52.4576 47.6575C52.4576 47.6575 53.3576 47.8575 53.5576 48.2575L55.9576 48.1575C55.9576 48.1575 57.3576 48.5575 57.2576 49.4575V50.5575C57.2576 50.5575 56.9576 52.8575 57.6576 52.9575H59.4576C59.4576 52.9575 60.9576 53.6575 60.7576 54.5575C60.7576 54.5575 60.8576 55.8575 59.4576 56.0575C59.4576 56.0575 58.1576 56.4575 57.6576 56.3575C57.6576 56.3575 57.2576 56.9575 57.1576 57.6575L57.0576 65.9575C57.0576 65.9575 56.9576 66.8575 58.2576 66.7575C58.2576 66.7575 60.2576 66.5575 60.7576 67.6575C60.7576 67.6575 61.2576 69.4575 60.2576 69.7575L59.4576 70.1575L57.8576 70.4575C57.8576 70.4575 57.1576 70.5575 57.0576 71.7575V73.9575C57.0576 73.9575 57.1576 75.4575 55.9576 75.4575L54.1576 75.5575C54.1576 75.5575 53.7576 75.9575 52.8576 75.6575C52.8576 75.6575 42.0576 75.8575 41.7576 75.7575L40.4576 75.9575C40.4576 75.9575 39.0576 77.2575 37.9576 76.2575L37.0576 75.5575C37.0576 75.5575 36.4576 75.6575 36.1576 75.6575C35.8576 75.5575 24.2576 75.7575 24.2576 75.7575C24.2576 75.7575 21.7576 76.0575 21.5576 75.1575C21.5576 75.1575 21.2576 71.9575 21.3576 71.5575C21.3576 71.5575 21.3576 70.6575 20.7576 70.5575C20.7576 70.5575 18.2576 70.4575 18.2576 70.1575C18.2576 70.1575 16.9576 69.2575 17.3576 68.2575C17.3576 68.2575 17.7576 66.9575 19.1576 66.8575C19.1576 66.8575 21.1576 67.1575 21.1576 66.5575C21.1576 66.5575 21.2576 66.1575 21.2576 65.5575C21.2576 65.5575 21.3576 58.0575 21.3576 57.5575C21.3576 57.5575 21.5576 56.5575 20.7576 56.5575C20.7576 56.5575 19.8576 56.8575 19.2576 56.4575C19.2576 56.4575 17.7576 56.5575 17.4576 55.3575C17.4576 55.3575 17.1576 54.5575 17.5576 53.9575C17.5576 53.9575 18.2576 52.5575 20.2576 53.0575C20.2576 53.0575 21.3576 53.3575 21.5576 52.5575L21.4576 49.5575C21.4576 49.5575 21.1576 48.7575 22.7576 48.2575C22.7576 48.2575 24.7576 48.8575 25.4576 47.8575C25.4576 47.8575 26.1576 46.4575 26.7576 47.4575C26.7576 47.4575 27.9576 48.5575 31.2576 48.4575C31.2576 48.4575 36.9576 48.0575 37.0576 48.2575C37.0576 48.2575 38.4576 48.4575 38.8576 48.8575L39.1576 48.9575Z" fill="#1E1E1E"/>
<path d="M39.1576 48.8575C39.1576 48.8575 39.5576 48.6575 39.7576 48.3575C39.7576 48.3575 41.0576 48.2575 41.2576 48.0575L45.4576 48.3575C45.4576 48.3575 49.5576 48.6575 51.3576 47.3575C51.3576 47.3575 51.9576 47.3575 52.4576 47.5575C52.4576 47.5575 53.3576 47.7575 53.5576 48.1575L55.9576 48.0575C55.9576 48.0575 57.3576 48.4575 57.2576 49.3575V50.4575C57.2576 50.4575 56.9576 52.7575 57.6576 52.8575H59.4576C59.4576 52.8575 60.9576 53.5575 60.7576 54.4575C60.7576 54.4575 60.8576 55.7575 59.4576 55.9575C59.4576 55.9575 58.1576 56.3575 57.6576 56.2575C57.6576 56.2575 57.2576 56.8575 57.1576 57.5575L57.0576 65.9575C57.0576 65.9575 56.9576 66.8575 58.2576 66.7575C58.2576 66.7575 60.2576 66.5575 60.7576 67.6575C60.7576 67.6575 61.2576 69.4575 60.2576 69.7575L59.4576 70.1575L57.8576 70.4575C57.8576 70.4575 57.1576 70.5575 57.0576 71.7575V73.9575C57.0576 73.9575 57.1576 75.4575 55.9576 75.4575L54.1576 75.5575C54.1576 75.5575 53.7576 75.9575 52.8576 75.6575C52.8576 75.6575 42.0576 75.8575 41.7576 75.7575L40.4576 76.0575C40.4576 76.0575 39.0576 77.3575 37.9576 76.3575L37.0576 75.6575C37.0576 75.6575 36.4576 75.7575 36.1576 75.7575C35.8576 75.6575 24.2576 75.8575 24.2576 75.8575C24.2576 75.8575 21.7576 76.1575 21.5576 75.2575C21.5576 75.2575 21.2576 72.0575 21.3576 71.6575C21.3576 71.6575 21.3576 70.7575 20.7576 70.6575C20.7576 70.6575 18.2576 70.5575 18.2576 70.2575C18.2576 70.2575 16.9576 69.2575 17.3576 68.3575C17.3576 68.3575 17.7576 67.0575 19.1576 66.9575C19.1576 66.9575 21.1576 67.2575 21.1576 66.6575C21.1576 66.6575 21.2576 66.2575 21.2576 65.6575C21.2576 65.6575 21.3576 58.1575 21.3576 57.6575C21.3576 57.6575 21.5576 56.6575 20.7576 56.6575C20.7576 56.6575 19.8576 56.9575 19.2576 56.5575C19.2576 56.5575 17.7576 56.6575 17.4576 55.4575C17.4576 55.4575 17.1576 54.6575 17.5576 54.0575C17.5576 54.0575 18.2576 52.6575 20.2576 53.1575C20.2576 53.1575 21.3576 53.4575 21.5576 52.6575L21.4576 49.6575C21.4576 49.6575 21.1576 48.8575 22.7576 48.3575C22.7576 48.3575 24.7576 48.9575 25.4576 47.9575C25.4576 47.9575 26.1576 46.5575 26.7576 47.5575C26.7576 47.5575 27.9576 48.6575 31.2576 48.5575C31.2576 48.5575 36.9576 48.1575 37.0576 48.3575C37.0576 48.3575 38.4576 48.5575 38.8576 48.9575L39.1576 48.8575Z" stroke="black" stroke-width="0.2189"/>
<path d="M40.8575 73.7575C40.8575 73.7575 41.6575 73.3575 42.1575 73.5575C42.6575 73.6575 50.0575 73.4575 50.0575 73.4575C50.0575 73.4575 53.2575 73.7575 53.7575 73.2575L54.5575 72.9575C54.5575 72.9575 54.8575 72.5575 54.8575 72.0575C54.8575 71.5575 54.9575 69.8575 54.9575 69.8575L55.1575 69.2575C55.1575 69.2575 55.0575 68.6575 55.1575 51.7575C55.1575 51.7575 55.3575 50.4575 54.5575 49.6575C54.5575 49.6575 54.5575 49.1575 54.8575 49.2575C55.1575 49.3575 54.9575 49.3575 54.9575 49.3575C54.9575 49.3575 56.0575 49.0575 56.2575 49.4575C56.2575 49.4575 56.7575 50.9575 56.3575 51.8575C56.3575 51.8575 56.2575 53.6575 57.1575 53.6575C57.1575 53.6575 57.5575 54.0575 58.2575 53.8575C58.2575 53.8575 59.8575 54.0575 59.8575 54.5575C59.8575 54.5575 59.8575 55.6575 58.7575 55.4575L57.2575 55.5575C57.2575 55.5575 56.2575 55.7575 56.3575 56.9575C56.4575 58.1575 56.2575 66.7575 56.2575 66.7575C56.2575 66.7575 56.2575 67.7575 57.8575 67.7575C57.8575 67.7575 59.8575 67.6575 59.8575 68.2575C59.8575 68.2575 60.3575 69.5575 58.9575 69.5575C58.9575 69.5575 56.2575 69.4575 56.4575 70.2575C56.4575 70.2575 56.2575 72.0575 56.1575 72.3575C56.1575 72.3575 56.4575 73.8575 56.0575 74.0575C56.0575 74.0575 55.8575 74.8575 54.1575 74.7575C54.1575 74.7575 43.2575 74.6575 41.5575 74.8575C41.5575 74.7575 40.5575 74.6575 40.8575 73.7575Z" fill="white"/>
<path d="M38.8576 72.5575C38.8576 72.5575 39.9576 72.7575 39.9576 73.7575C39.9576 74.7575 40.0576 75.3575 39.3576 75.4575C38.7576 75.5575 38.0576 75.3575 37.8576 74.5575C37.6576 73.7575 37.9576 72.7575 38.8576 72.5575Z" fill="white"/>
<path d="M40.1576 72.0575C40.1576 72.0575 41.2576 71.2575 41.7576 71.4575C41.7576 71.4575 47.5576 71.8575 49.2576 71.5575C51.0576 71.2575 49.9576 71.4575 49.9576 71.4575C49.9576 71.4575 51.4576 71.4575 51.9576 70.8575C51.9576 70.8575 52.3576 70.7575 52.6576 71.1575L53.5576 72.1575C53.5576 72.1575 53.6576 72.7575 52.5576 72.7575C52.5576 72.7575 42.2576 72.7575 41.9576 72.8575C41.8576 72.8575 39.9576 73.1575 40.1576 72.0575Z" fill="white"/>
<path d="M40.1576 72.0575C40.1576 72.0575 41.2576 71.2575 41.7576 71.4575C41.7576 71.4575 47.5576 71.8575 49.2576 71.5575C51.0576 71.2575 49.9576 71.4575 49.9576 71.4575C49.9576 71.4575 51.4576 71.4575 51.9576 70.8575C51.9576 70.8575 52.3576 70.7575 52.6576 71.1575L53.5576 72.1575C53.5576 72.1575 53.6576 72.7575 52.5576 72.7575C52.5576 72.7575 42.2576 72.7575 41.9576 72.8575C41.8576 72.8575 39.9576 73.1575 40.1576 72.0575Z" stroke="black" stroke-width="0.2305"/>
<path d="M25.1575 49.6575C25.1575 49.6575 25.5575 49.6575 25.5575 50.4575L25.4575 69.5575C25.4575 69.5575 25.6575 70.8575 24.5575 71.6575C24.5575 71.6575 23.9575 72.3575 23.9575 71.2575L24.2575 51.7575C24.1575 51.6575 24.2575 50.2575 25.1575 49.6575Z" fill="white"/>
<path d="M25.1575 49.6575C25.1575 49.6575 25.5575 49.6575 25.5575 50.4575L25.4575 69.5575C25.4575 69.5575 25.6575 70.8575 24.5575 71.6575C24.5575 71.6575 23.9575 72.3575 23.9575 71.2575L24.2575 51.7575C24.1575 51.6575 24.2575 50.2575 25.1575 49.6575Z" stroke="black" stroke-width="0.2305"/>
<path d="M24.1575 49.7575C24.1575 49.7575 23.3575 51.1575 23.4575 51.4575L23.3575 55.6575C23.3575 55.6575 23.2575 58.3575 23.3575 58.6575C23.4575 58.9575 23.2575 66.9575 23.2575 66.9575C23.2575 66.9575 23.1575 68.4575 23.2575 68.9575V72.3575C23.2575 72.3575 23.1575 73.8575 24.2575 73.4575C24.2575 73.4575 35.3575 73.1575 36.0575 73.3575C36.0575 73.3575 37.0575 73.5575 36.6575 74.0575C36.6575 74.0575 36.6575 74.4575 35.9575 74.3575C35.9575 74.3575 30.7575 74.8575 25.9575 74.6575C25.9575 74.6575 22.7575 74.8575 22.5575 74.4575C22.5575 74.4575 22.0575 74.3575 22.0575 72.5575C22.0575 72.5575 22.0575 70.8575 21.9575 70.5575C21.9575 70.5575 22.0575 69.6575 20.4575 69.4575C20.4575 69.4575 18.2575 69.8575 18.1575 68.5575C18.1575 68.5575 18.4575 67.6575 20.6575 67.7575C20.6575 67.7575 22.2575 68.0575 21.9575 66.7575L22.1575 57.3575C22.1575 57.3575 22.3575 55.7575 21.2575 55.6575C21.2575 55.6575 20.2575 55.5575 19.9575 55.7575C19.9575 55.7575 18.1575 55.7575 18.2575 54.6575C18.2575 54.6575 18.8575 53.5575 20.7575 53.7575C20.7575 53.7575 22.1575 54.0575 22.2575 52.4575C22.2575 52.4575 22.1575 49.2575 22.9575 49.0575C22.9575 49.2575 24.5575 49.2575 24.1575 49.7575Z" fill="white"/>
<path d="M26.0575 70.6575C26.0575 70.6575 26.9575 71.5575 28.3575 71.5575L36.9575 71.6575C36.9575 71.6575 37.9575 71.7575 37.8575 72.2575C37.8575 72.2575 37.7575 73.0575 36.5575 72.7575L26.1575 72.6575L25.0575 72.7575C25.0575 72.7575 24.2575 72.6575 25.4575 71.1575L26.0575 70.6575Z" fill="white"/>
<path d="M26.0575 70.6575C26.0575 70.6575 26.9575 71.5575 28.3575 71.5575L36.9575 71.6575C36.9575 71.6575 37.9575 71.7575 37.8575 72.2575C37.8575 72.2575 37.7575 73.0575 36.5575 72.7575L26.1575 72.6575L25.0575 72.7575C25.0575 72.7575 24.2575 72.6575 25.4575 71.1575L26.0575 70.6575Z" stroke="black" stroke-width="0.2305"/>
<path d="M52.5575 69.8575C52.5575 69.8575 53.3575 71.3575 53.6575 71.5575C53.6575 71.5575 54.3575 72.3575 54.1575 70.9575L54.2575 52.7575C54.2575 52.7575 54.0575 52.1575 54.2575 51.1575L53.4575 49.7575C53.4575 49.7575 52.6575 49.1575 52.6575 50.1575L52.5575 69.5575V69.8575Z" fill="white"/>
<path d="M52.5575 69.8575C52.5575 69.8575 53.3575 71.3575 53.6575 71.5575C53.6575 71.5575 54.3575 72.3575 54.1575 70.9575L54.2575 52.7575C54.2575 52.7575 54.0575 52.1575 54.2575 51.1575L53.4575 49.7575C53.4575 49.7575 52.6575 49.1575 52.6575 50.1575L52.5575 69.5575V69.8575Z" stroke="black" stroke-width="0.2305"/>
<path d="M38.5576 61.1575C38.5576 61.1575 38.6576 62.6575 38.4576 64.1575C38.3576 64.9575 38.7576 68.6575 38.3576 70.5575C38.3576 70.5575 38.2576 71.1575 36.9576 70.6575C36.9576 70.6575 28.8576 70.8575 28.6576 70.5575C28.6576 70.5575 26.4576 70.6575 26.2576 69.4575C26.2576 69.4575 26.5576 60.7575 26.3576 60.4575C26.3576 60.4575 26.2576 55.7575 26.3576 55.2575C26.3576 55.2575 26.5576 50.8575 26.4576 50.3575C26.4576 50.3575 26.5576 49.3575 26.3576 48.8575C26.3576 48.8575 26.3576 48.2575 27.4576 48.5575C27.4576 48.5575 27.8576 49.2575 29.9576 48.9575C29.9576 48.9575 31.4576 49.1575 32.9576 49.0575C32.9576 49.0575 36.1576 48.7575 36.9576 49.0575C36.9576 49.0575 38.2576 48.7575 38.5576 50.1575L38.4576 54.0575L38.8576 55.3575L39.2576 55.0575L39.4576 54.0575L39.5576 49.8575C39.5576 49.8575 39.8576 49.0575 40.8576 48.9575C40.8576 48.9575 42.4576 48.7575 42.6576 48.8575C42.8576 48.9575 46.3576 49.1575 47.2576 48.9575C48.1576 48.7575 48.3576 49.5575 51.2576 48.1575C51.2576 48.1575 52.0576 48.2575 52.0576 48.7575C52.0576 48.7575 51.7576 54.1575 52.0576 55.1575C52.0576 55.1575 52.0576 65.0575 51.8576 65.7575L51.9576 68.9575C51.9576 68.9575 52.0576 70.3575 49.8576 70.4575C49.8576 70.4575 51.2576 70.6575 42.5576 70.3575C42.5576 70.3575 41.1576 70.2575 39.6576 70.9575C39.6576 70.9575 39.3576 70.8575 39.3576 70.0575C39.3576 70.0575 39.6576 67.0575 39.3576 64.1575L39.2576 60.9575L38.5576 61.1575Z" fill="white"/>
<path d="M32.8575 56.6575C32.8575 56.6575 33.0575 61.3575 32.8575 61.9575L32.7575 62.9575C32.7575 62.9575 33.0575 63.6575 33.3575 63.8575C33.3575 63.8575 33.6575 64.7575 32.9575 64.6575C32.9575 64.6575 31.3575 64.5575 30.9575 64.5575C30.9575 64.5575 30.0575 64.5575 30.9575 63.4575C30.9575 63.4575 31.2575 63.0575 31.1575 61.8575C31.1575 61.8575 31.1575 56.5575 31.2575 56.2575C31.2575 56.2575 31.3575 55.5575 30.9575 55.3575L30.1575 55.4575L29.2575 56.3575C29.2575 56.3575 29.0575 57.2575 28.6575 56.2575V55.7575L29.2575 54.2575L29.6575 54.1575C29.6575 54.1575 30.2575 54.5575 30.7575 54.6575H33.7575L34.8575 54.1575C34.8575 54.1575 35.2575 54.2575 35.1575 54.7575C35.1575 54.7575 35.3575 56.2575 34.5575 56.3575C34.5575 56.3575 34.0575 56.1575 33.7575 55.4575C33.7575 55.6575 32.9575 55.2575 32.8575 56.6575Z" fill="#1E1E1E"/>
<path d="M46.8576 54.9575C46.8576 54.9575 44.4576 54.7575 44.3576 57.3575C44.3576 57.3575 44.0576 59.1575 46.7576 60.2575C46.7576 60.2575 48.7576 61.1575 48.5576 62.3575C48.5576 62.3575 48.2576 64.5575 46.2576 63.4575C46.2576 63.4575 45.2576 62.9575 45.3576 62.3575C45.3576 62.3575 45.0576 61.6575 44.6576 61.7575C44.6576 61.7575 44.2576 61.8575 44.4576 63.9575C44.4576 63.9575 44.4576 64.7575 45.3576 63.9575L45.8576 64.0575C45.8576 64.0575 47.5576 65.4575 49.0576 63.7575C49.0576 63.7575 50.6576 62.2575 49.4576 60.5575C49.4576 60.5575 48.6576 59.2575 47.1576 58.6575C47.1576 58.6575 45.7576 58.0575 45.4576 56.9575C45.4576 56.9575 45.8576 55.0575 47.5576 56.0575C47.5576 56.0575 48.1576 56.8575 48.5576 56.9575C48.5576 56.9575 49.0576 56.9575 48.9576 55.8575L48.8576 54.9575C48.8576 54.9575 48.7576 54.2575 47.8576 54.9575C47.8576 54.9575 47.0576 55.2575 46.8576 54.9575Z" fill="#1E1E1E"/>
<path d="M39.1575 53.6575C39.5575 53.9575 39.6575 54.6575 39.6575 54.6575C40.9575 58.0575 41.9575 62.8575 41.9575 62.8575C42.2575 63.4575 42.8575 63.9575 42.8575 63.9575C43.9575 64.3575 42.8575 64.6575 42.8575 64.6575C42.4575 64.8575 40.9575 64.5575 40.9575 64.5575C40.1575 64.4575 40.5575 64.1575 40.5575 64.1575C40.8575 63.8575 40.6575 62.5575 40.6575 62.5575C40.5575 62.0575 40.0575 61.2575 40.0575 61.2575C39.7575 61.1575 39.3575 61.6575 39.3575 61.6575C39.3575 61.6575 38.6575 61.9575 38.5575 61.6575C38.4575 61.3575 38.0575 61.1575 38.0575 61.1575C37.2575 61.1575 36.9575 63.0575 36.9575 63.0575C37.3575 64.6575 36.9575 64.3575 36.9575 64.3575C36.5575 64.8575 35.3575 64.4575 35.3575 64.4575C34.7575 64.3575 35.1575 63.8575 35.1575 63.8575C35.8575 63.7575 36.0575 62.9575 36.0575 62.9575C36.3575 62.5575 38.3575 54.2575 38.3575 54.2575C38.5575 54.0575 38.6575 53.3575 39.1575 53.6575ZM38.1575 57.8575C38.0575 58.1575 37.6575 59.9575 37.6575 59.9575L38.0575 60.5575C38.0575 60.5575 39.0575 60.6575 39.4575 60.6575C39.8575 60.6575 39.8575 60.3575 39.8575 60.0575C39.8575 59.7575 39.1575 57.8575 39.1575 57.8575L38.8575 57.4575L38.1575 57.8575Z" fill="#1E1E1E"/>
<path d="M21.9575 38.3575C21.9575 38.3575 21.2575 40.5575 18.1575 38.2575L7.55752 38.0575C7.55752 38.0575 6.15752 38.4575 5.95752 37.0575C5.95752 37.0575 6.25752 34.1575 6.05752 33.8575C6.05752 33.8575 6.15752 33.0575 4.75752 33.0575C4.75752 33.0575 2.65752 33.3575 2.55752 31.4575C2.55752 31.4575 2.15752 29.4575 5.15752 29.4575C5.15752 29.4575 6.05752 29.8575 6.15752 28.6575C6.15752 28.6575 6.05752 20.4575 6.05752 19.7575C6.05752 19.7575 6.35752 18.9575 4.85752 18.8575C4.85752 18.8575 2.75752 19.2575 2.55752 17.8575C2.55752 17.8575 2.45752 15.7575 3.85752 15.6575C3.85752 15.6575 5.55752 15.7575 5.85752 15.3575C5.85752 15.3575 6.25752 15.5575 6.15752 14.0575L6.25752 11.4575C6.25752 11.4575 6.45752 10.7575 7.55752 10.8575C7.55752 10.8575 9.55752 10.9575 9.75752 10.7575C9.75752 10.7575 10.1575 10.1575 10.3575 9.95751C10.3575 9.95751 11.3575 9.85751 11.5575 10.1575C11.5575 10.1575 13.0575 11.1575 18.8575 10.7575C18.8575 10.7575 19.7575 10.7575 19.9575 11.0575C19.9575 11.0575 21.0575 11.8575 21.6575 10.9575C21.6575 10.9575 22.5575 10.7575 25.4575 10.8575C25.4575 10.8575 28.5575 11.6575 30.6575 9.95751L31.3575 10.0575C31.3575 10.0575 32.2575 11.5575 32.8575 11.0575C32.8575 11.0575 34.7575 10.8575 35.0575 11.2575C35.0575 11.2575 35.6575 12.1575 35.3575 14.6575C35.3575 14.6575 34.9575 15.7575 36.8575 15.7575C36.8575 15.7575 38.9575 15.3575 38.6575 17.3575C38.6575 17.3575 39.2575 19.5575 35.7575 19.2575C35.7575 19.2575 35.3575 19.8575 35.3575 20.3575C35.3575 20.3575 35.2575 27.5575 35.2575 28.3575C35.2575 28.3575 35.1575 29.4575 36.7575 29.4575C36.7575 29.4575 38.7575 29.3575 38.8575 31.1575C38.8575 31.1575 39.1575 33.5575 36.1575 33.1575C36.1575 33.1575 35.2575 33.2575 35.1575 33.8575L34.9575 37.0575C34.9575 37.0575 35.0575 38.6575 33.2575 38.2575C32.9575 38.2575 23.3575 38.4575 22.5575 38.1575C22.5575 38.1575 22.1575 38.0575 21.9575 38.3575Z" fill="#1E1E1E"/>
<path d="M21.9575 38.3575C21.9575 38.3575 21.2575 40.5575 18.1575 38.2575L7.55752 38.0575C7.55752 38.0575 6.15752 38.4575 5.95752 37.0575C5.95752 37.0575 6.25752 34.1575 6.05752 33.8575C6.05752 33.8575 6.15752 33.0575 4.75752 33.0575C4.75752 33.0575 2.65752 33.3575 2.55752 31.4575C2.55752 31.4575 2.15752 29.4575 5.15752 29.4575C5.15752 29.4575 6.05752 29.8575 6.15752 28.6575C6.15752 28.6575 6.05752 20.4575 6.05752 19.7575C6.05752 19.7575 6.35752 18.9575 4.85752 18.8575C4.85752 18.8575 2.75752 19.2575 2.55752 17.8575C2.55752 17.8575 2.45752 15.7575 3.85752 15.6575C3.85752 15.6575 5.55752 15.7575 5.85752 15.3575C5.85752 15.3575 6.25752 15.5575 6.15752 14.0575L6.25752 11.4575C6.25752 11.4575 6.45752 10.7575 7.55752 10.8575C7.55752 10.8575 9.55752 10.9575 9.75752 10.7575C9.75752 10.7575 10.1575 10.1575 10.3575 9.95751C10.3575 9.95751 11.3575 9.85751 11.5575 10.1575C11.5575 10.1575 13.0575 11.1575 18.8575 10.7575C18.8575 10.7575 19.7575 10.7575 19.9575 11.0575C19.9575 11.0575 21.0575 11.8575 21.6575 10.9575C21.6575 10.9575 22.5575 10.7575 25.4575 10.8575C25.4575 10.8575 28.5575 11.6575 30.6575 9.95751L31.3575 10.0575C31.3575 10.0575 32.2575 11.5575 32.8575 11.0575C32.8575 11.0575 34.7575 10.8575 35.0575 11.2575C35.0575 11.2575 35.6575 12.1575 35.3575 14.6575C35.3575 14.6575 34.9575 15.7575 36.8575 15.7575C36.8575 15.7575 38.9575 15.3575 38.6575 17.3575C38.6575 17.3575 39.2575 19.5575 35.7575 19.2575C35.7575 19.2575 35.3575 19.8575 35.3575 20.3575C35.3575 20.3575 35.2575 27.5575 35.2575 28.3575C35.2575 28.3575 35.1575 29.4575 36.7575 29.4575C36.7575 29.4575 38.7575 29.3575 38.8575 31.1575C38.8575 31.1575 39.1575 33.5575 36.1575 33.1575C36.1575 33.1575 35.2575 33.2575 35.1575 33.8575L34.9575 37.0575C34.9575 37.0575 35.0575 38.6575 33.2575 38.2575C32.9575 38.2575 23.3575 38.4575 22.5575 38.1575C22.5575 38.1575 22.1575 38.0575 21.9575 38.3575Z" stroke="black" stroke-width="0.2189"/>
<path d="M10.0575 12.2575C10.0575 12.2575 10.1575 13.5575 10.1575 13.8575C10.1575 14.1575 9.95749 32.1575 9.95749 32.1575C9.95749 32.1575 10.1575 33.5575 8.95749 34.2575C8.95749 34.2575 8.6575 34.3575 8.5575 33.4575L8.65749 14.4575C8.75749 14.4575 8.8575 12.1575 10.0575 12.2575Z" fill="white"/>
<path d="M10.0575 12.2575C10.0575 12.2575 10.1575 13.5575 10.1575 13.8575C10.1575 14.1575 9.95749 32.1575 9.95749 32.1575C9.95749 32.1575 10.1575 33.5575 8.95749 34.2575C8.95749 34.2575 8.6575 34.3575 8.5575 33.4575L8.65749 14.4575C8.75749 14.4575 8.8575 12.1575 10.0575 12.2575Z" stroke="black" stroke-width="0.2305"/>
<path d="M7.95757 34.4575C7.95757 34.4575 8.05757 16.6575 8.05757 16.2575C7.95757 15.9575 8.05757 16.5575 8.05757 16.5575C8.05757 16.5575 7.85757 13.4575 8.65757 12.1575C8.65757 12.1575 8.35757 11.0575 6.95757 12.4575V15.0575C6.95757 15.0575 6.95757 16.5575 5.65757 16.4575C5.65757 16.4575 4.15757 16.3575 3.45757 17.0575C3.45757 17.0575 3.05757 18.4575 4.55757 18.1575C4.55757 18.1575 6.85757 18.1575 6.95757 19.0575L6.85757 28.6575C6.85757 28.6575 7.35757 30.2575 5.55757 30.2575C5.55757 30.2575 3.45757 30.1575 3.45757 31.4575C3.45757 31.4575 3.85757 32.5575 5.75757 32.2575C5.75757 32.2575 7.05757 32.5575 7.05757 33.7575V36.1575C7.05757 36.1575 6.95757 37.1575 8.15757 37.1575H17.9576C17.9576 37.1575 18.4576 37.2575 18.4576 36.5575C18.4576 36.5575 18.3576 36.0575 17.6576 36.0575L9.45757 35.9575C9.45757 35.9575 8.05757 36.3575 7.95757 34.4575Z" fill="white"/>
<path d="M9.65754 34.5575C9.65754 34.5575 9.35754 35.4575 10.3575 35.2575H16.8575L18.6575 35.6575C18.6575 35.6575 20.4575 35.2575 18.6575 34.1575C18.6575 34.1575 12.8575 34.2575 12.3575 34.0575C12.3575 34.0575 11.1575 33.7575 10.8575 33.6575C10.8575 33.7575 10.2575 33.4575 9.65754 34.5575Z" fill="white"/>
<path d="M9.65754 34.5575C9.65754 34.5575 9.35754 35.4575 10.3575 35.2575H16.8575L18.6575 35.6575C18.6575 35.6575 20.4575 35.2575 18.6575 34.1575C18.6575 34.1575 12.8575 34.2575 12.3575 34.0575C12.3575 34.0575 11.1575 33.7575 10.8575 33.6575C10.8575 33.7575 10.2575 33.4575 9.65754 34.5575Z" stroke="black" stroke-width="0.2305"/>
<path d="M20.4575 35.4575C20.4575 35.4575 19.2575 35.4575 19.3575 37.0575C19.3575 37.0575 19.4575 38.2575 20.7575 38.2575C20.7575 38.2575 21.8575 38.0575 21.7575 36.7575C21.7575 36.7575 21.0575 35.1575 20.4575 35.4575Z" fill="white"/>
<path d="M21.3576 34.7575C21.3576 34.7575 21.9576 34.1575 22.2576 34.1575C22.2576 34.1575 28.5576 34.7575 29.6576 33.9575C29.6576 33.9575 30.5576 33.7575 30.8576 33.9575C30.8576 33.9575 31.7576 34.7575 31.7576 35.1575C31.7576 35.1575 31.6576 35.7575 30.5576 35.4575C30.5576 35.4575 23.3576 35.5575 23.0576 35.5575C23.1576 35.4575 21.1576 35.9575 21.3576 34.7575Z" fill="white"/>
<path d="M21.3576 34.7575C21.3576 34.7575 21.9576 34.1575 22.2576 34.1575C22.2576 34.1575 28.5576 34.7575 29.6576 33.9575C29.6576 33.9575 30.5576 33.7575 30.8576 33.9575C30.8576 33.9575 31.7576 34.7575 31.7576 35.1575C31.7576 35.1575 31.6576 35.7575 30.5576 35.4575C30.5576 35.4575 23.3576 35.5575 23.0576 35.5575C23.1576 35.4575 21.1576 35.9575 21.3576 34.7575Z" stroke="black" stroke-width="0.2305"/>
<path d="M22.3575 36.6575C22.3575 36.6575 22.3575 36.1575 23.2575 36.1575L32.1575 36.0575C32.1575 36.0575 32.9575 36.4575 32.9575 34.9575C32.9575 34.9575 33.2575 28.0575 33.3575 20.4575C33.3575 18.1575 33.4575 15.8575 33.3575 13.6575C33.3575 13.6575 33.1575 12.7575 32.9575 12.5575C32.9575 12.5575 32.9575 11.5575 34.0575 11.9575C34.0575 11.9575 34.9575 12.0575 34.7575 13.4575L34.8575 15.6575C34.8575 15.6575 34.6575 16.5575 36.3575 16.3575C36.3575 16.3575 38.0575 16.5575 38.1575 17.2575C38.1575 17.2575 38.6575 18.5575 36.6575 18.3575H35.1575C35.1575 18.3575 34.5575 18.7575 34.7575 19.4575L34.5575 28.6575C34.5575 28.6575 34.4575 30.2575 35.9575 30.1575C35.9575 30.1575 37.5575 30.0575 37.8575 30.5575C37.8575 30.5575 38.9575 32.1575 36.5575 32.0575C36.5575 32.0575 35.0575 31.9575 34.7575 32.2575C34.7575 32.2575 34.5575 32.5575 34.3575 35.5575C34.3575 35.5575 34.4575 37.3575 33.1575 37.1575C33.1575 37.1575 24.3575 37.2575 23.5575 37.0575C23.3575 37.1575 22.4575 37.3575 22.3575 36.6575Z" fill="white"/>
<path d="M10.9575 11.7575L10.7575 32.0575C10.7575 32.0575 10.6575 32.9575 12.2575 33.1575C12.2575 33.1575 14.0575 33.3575 14.5575 33.1575C14.5575 33.1575 15.7575 33.0575 18.8575 33.2575C18.8575 33.2575 19.6575 34.0575 19.6575 33.0575C19.6575 33.0575 20.1575 16.6575 19.9575 13.1575C19.9575 13.1575 19.8575 11.6575 18.8575 11.6575C18.8575 11.6575 14.0575 12.0575 13.6575 11.6575L11.7575 11.1575C11.6575 11.1575 10.9575 11.2575 10.9575 11.7575Z" fill="white"/>
<path d="M31.0575 12.4575L30.9575 32.4575C30.9575 32.4575 31.4575 34.2575 32.2575 34.0575C32.2575 34.0575 32.3575 33.6575 32.4575 33.0575L32.7575 14.0575C32.7575 13.9575 32.1575 10.9575 31.0575 12.4575Z" fill="white"/>
<path d="M31.0575 12.4575L30.9575 32.4575C30.9575 32.4575 31.4575 34.2575 32.2575 34.0575C32.2575 34.0575 32.3575 33.6575 32.4575 33.0575L32.7575 14.0575C32.7575 13.9575 32.1575 10.9575 31.0575 12.4575Z" stroke="black" stroke-width="0.2305"/>
<path d="M20.9575 12.6575C20.9575 12.6575 20.7575 22.1575 20.8575 22.5575L20.7575 30.5575L20.4575 33.3575C20.4575 33.3575 20.8575 33.9575 21.1575 33.5575C21.1575 33.5575 23.1575 33.0575 24.4575 33.2575C24.4575 33.2575 28.5575 33.6575 29.3575 32.9575C29.3575 32.9575 29.9575 33.2575 30.1575 32.2575C30.1575 32.2575 30.4575 14.5575 30.2575 14.2575C30.2575 14.2575 30.5575 11.7575 30.3575 11.4575C30.3575 11.4575 30.2575 10.8575 29.2575 11.3575C29.2575 11.3575 29.3575 11.8575 23.3575 11.6575C23.3575 11.6575 21.0575 11.6575 20.9575 12.6575Z" fill="white"/>
<path d="M19.0575 18.4575L18.4575 19.6575C18.4575 19.6575 17.0575 25.7575 16.3575 27.0575C16.3575 27.0575 16.2575 28.3575 15.1575 27.3575C15.1575 27.3575 12.6575 19.5575 12.5575 19.3575L11.7575 18.7575C11.7575 18.7575 11.2575 18.0575 12.1575 17.9575L14.4575 18.0575C14.4575 18.0575 15.2575 18.6575 14.1575 19.3575C14.1575 19.3575 14.2575 20.3575 15.6575 24.2575C15.6575 24.2575 16.0575 25.7575 16.4575 24.6575L17.7575 20.1575L17.3575 18.8575C17.3575 18.8575 16.9575 18.2575 17.5575 18.1575C17.5575 18.1575 18.8575 17.9575 19.0575 18.4575Z" fill="#1E1E1E"/>
<path d="M22.6575 19.5575L22.5575 26.2575L22.3575 26.7575C22.3575 26.7575 21.7575 27.5575 22.1575 27.6575C22.1575 27.6575 21.5575 28.0575 26.1575 28.0575C26.1575 28.0575 27.9575 28.3575 27.4575 26.0575C27.4575 26.0575 27.2575 25.2575 26.6575 26.4575C26.6575 26.4575 26.4575 27.4575 24.1575 27.1575C24.1575 27.1575 23.6575 26.7575 23.6575 26.2575V23.4575C23.6575 23.4575 23.5575 22.7575 24.6575 22.8575C24.6575 22.8575 25.8575 23.6575 26.0575 23.2575C26.0575 23.2575 26.4575 22.2575 26.0575 21.6575C26.0575 21.6575 25.4575 21.5575 25.4575 21.8575C25.4575 21.8575 25.0575 22.6575 23.9575 22.1575C23.9575 22.1575 23.4575 21.1575 23.7575 20.3575C23.7575 20.3575 23.6575 18.7575 24.6575 18.8575C24.6575 18.8575 25.9575 19.1575 26.0575 19.4575C26.0575 19.4575 26.3575 20.2575 26.6575 19.3575L26.3575 18.2575C26.3575 18.2575 26.1575 17.8575 25.8575 17.9575C25.8575 17.9575 23.7575 18.2575 23.4575 18.0575L21.9575 18.1575C21.9575 18.1575 21.7575 18.7575 22.4575 19.0575C22.4575 19.1575 22.6575 19.2575 22.6575 19.5575Z" fill="#1E1E1E"/>
</svg>
