<svg width="159" height="26" viewBox="0 0 159 26" fill="none" xmlns="http://www.w3.org/2000/svg">
<path d="M23.1177 0H23.1029C23.1029 0 23.0948 0 23.0899 0C19.6971 0.00490751 16.4647 1.33812 14.0519 3.68391C12.8168 3.16044 11.4869 2.88889 10.1128 2.88889C4.53617 2.88889 0 7.42507 0 13C0 18.5749 4.53617 23.1111 10.1111 23.1111C11.464 23.1111 12.8021 22.8347 14.0404 22.3145C16.3829 24.5932 19.5777 26 23.0964 26C30.2646 26 36.0964 20.1682 36.0964 13C36.0964 5.83176 30.2761 0.0114509 23.1177 0ZM23.0964 23.1111C17.5215 23.1111 12.9853 18.5749 12.9853 13H10.0964C10.0964 15.5503 10.8374 17.9288 12.1101 19.9376C11.4623 20.1241 10.79 20.2222 10.1111 20.2222C6.12948 20.2222 2.88888 16.9816 2.88888 13C2.88888 9.01837 6.12948 5.77778 10.1111 5.77778C11.6881 5.77778 13.1865 6.27671 14.4428 7.22059C16.2799 8.5996 17.3333 10.7066 17.3333 13H20.2222C20.2222 9.97534 18.9119 7.18296 16.6103 5.25595C18.4179 3.73952 20.7097 2.89052 23.1029 2.88889C28.6746 2.89216 33.2059 7.4267 33.2059 13C33.2059 18.5733 28.6697 23.1111 23.0948 23.1111H23.0964ZM53.1386 9.05436C53.5066 9.7136 53.6915 10.4759 53.6915 11.3413V18.786H50.9056V12.0005C50.9056 11.4901 50.8059 11.0501 50.6079 10.682C50.41 10.314 50.1319 10.0293 49.7785 9.83138C49.4236 9.63345 49.0195 9.53366 48.5664 9.53366C48.1133 9.53366 47.7076 9.63345 47.3542 9.83138C46.9993 10.0293 46.7228 10.314 46.5249 10.682C46.3253 11.0517 46.2271 11.4901 46.2271 12.0005V18.786H43.42V7.21404H46.057V8.63722C46.3253 8.15956 46.6983 7.78004 47.1743 7.50031C47.791 7.13879 48.5108 6.95722 49.3336 6.95722C50.1564 6.95722 50.94 7.14207 51.5992 7.51013C52.2585 7.87983 52.7721 8.39348 53.1418 9.05272L53.1386 9.05436ZM63.1384 7.21404H65.9243V14.2334C65.9243 15.1838 65.7083 16.0198 65.2748 16.7428C64.8413 17.4658 64.2459 18.0302 63.4885 18.4343C62.7295 18.8383 61.833 19.0411 60.7976 19.0411C59.7621 19.0411 58.8787 18.8383 58.1066 18.4343C57.3328 18.0302 56.7309 17.4658 56.299 16.7428C55.8655 16.0198 55.6496 15.1822 55.6496 14.2334V7.21404H58.4567V14.1484C58.4567 14.6162 58.5565 15.0235 58.7544 15.372C58.9523 15.7204 59.2288 15.9919 59.5838 16.1915C59.9387 16.3895 60.3428 16.4892 60.7959 16.4892C61.249 16.4892 61.6744 16.3895 62.0293 16.1915C62.3843 15.9936 62.6575 15.7204 62.8489 15.372C63.0403 15.0252 63.1368 14.6162 63.1368 14.1484V7.21404H63.1384ZM78.4433 7.21404L73.8908 18.786H71.424L66.8714 7.21404H69.9124L72.6476 14.7667L75.4007 7.21404H78.4417H78.4433ZM88.3303 8.63886C87.8477 8.11375 87.2638 7.70316 86.5751 7.40544C85.8864 7.10771 85.0897 6.95885 84.1818 6.95885C83.0891 6.95885 82.1109 7.22059 81.2472 7.74569C80.3818 8.27079 79.6947 8.98238 79.1844 9.88373C78.674 10.7851 78.4188 11.8157 78.4188 12.9787C78.4188 14.1418 78.6674 15.12 79.1631 16.041C79.6588 16.9636 80.3573 17.6932 81.2586 18.2314C82.1583 18.7712 83.2052 19.0395 84.3961 19.0395C85.1764 19.0395 85.8995 18.9185 86.5653 18.678C87.231 18.4375 87.8052 18.1038 88.2878 17.6785C88.7704 17.2532 89.1237 16.7641 89.3511 16.2111L87.0969 15.1053C86.8417 15.5601 86.49 15.9216 86.0434 16.1899C85.5968 16.4598 85.0537 16.5939 84.4158 16.5939C83.7778 16.5939 83.2134 16.4451 82.7243 16.1474C82.2352 15.8496 81.8655 15.4276 81.6185 14.8812C81.4696 14.5524 81.3764 14.1942 81.3371 13.8065H89.6701C89.7273 13.6363 89.765 13.4482 89.7862 13.2421C89.8075 13.036 89.8189 12.8266 89.8189 12.6139C89.8189 11.8336 89.6913 11.1073 89.4361 10.4334C89.181 9.75941 88.8113 9.16069 88.3303 8.63559V8.63886ZM82.6294 9.70215C83.0826 9.40443 83.6011 9.25557 84.1818 9.25557C84.7626 9.25557 85.3122 9.40443 85.7457 9.70215C86.1776 9.99987 86.49 10.4039 86.6814 10.9143C86.7681 11.1466 86.8205 11.3969 86.8368 11.6586H81.3944C81.4418 11.4149 81.5089 11.1875 81.5972 10.9781C81.8311 10.4252 82.1747 9.99987 82.6294 9.70215ZM108.066 9.05272C108.434 9.71197 108.619 10.4743 108.619 11.3396V18.7843H105.833V11.9989C105.833 11.4885 105.742 11.0484 105.557 10.6804C105.372 10.3123 105.114 10.0277 104.78 9.82975C104.446 9.63181 104.053 9.53202 103.599 9.53202C103.144 9.53202 102.769 9.63181 102.429 9.82975C102.089 10.0277 101.825 10.3123 101.642 10.6804C101.457 11.0501 101.366 11.4885 101.366 11.9989V18.7843H98.5805V11.9989C98.5805 11.4885 98.4889 11.0484 98.304 10.6804C98.1192 10.3123 97.8607 10.0277 97.527 9.82975C97.1933 9.63181 96.8007 9.53202 96.3459 9.53202C95.8912 9.53202 95.5166 9.63181 95.1763 9.82975C94.8361 10.0277 94.5727 10.3123 94.3895 10.6804C94.2046 11.0501 94.113 11.4885 94.113 11.9989V18.7843H91.3059V7.21404H93.9429V8.6683C94.1785 8.21027 94.504 7.84548 94.9211 7.57556C95.5591 7.16497 96.3099 6.95885 97.1753 6.95885C98.1257 6.95885 98.9616 7.2075 99.6847 7.70316C100.141 8.0156 100.494 8.39185 100.747 8.82861C101.057 8.34114 101.439 7.9469 101.896 7.64918C102.604 7.18787 103.42 6.95722 104.341 6.95722C105.164 6.95722 105.897 7.14207 106.543 7.51013C107.188 7.87983 107.696 8.39348 108.066 9.05272ZM113.108 10.4039C113.108 10.6035 113.165 10.7802 113.278 10.9356C113.391 11.0926 113.551 11.2186 113.757 11.3184C113.963 11.4181 114.201 11.5098 114.471 11.5948L116.321 12.1477C117.271 12.4324 118.004 12.8577 118.522 13.4237C119.039 13.9913 119.299 14.6865 119.299 15.5077C119.299 16.203 119.115 16.8164 118.747 17.3481C118.379 17.8797 117.867 18.2952 117.215 18.5929C116.563 18.8907 115.797 19.0395 114.919 19.0395C113.685 19.0395 112.611 18.7451 111.696 18.1562C110.782 17.5673 110.147 16.7706 109.792 15.7629L111.897 14.7634C112.195 15.4161 112.611 15.9265 113.142 16.2946C113.674 16.6626 114.266 16.8475 114.919 16.8475C115.414 16.8475 115.812 16.7346 116.11 16.5072C116.407 16.2799 116.556 15.9821 116.556 15.6141C116.556 15.3867 116.496 15.1986 116.375 15.0497C116.254 14.9008 116.095 14.7732 115.895 14.6669C115.696 14.5606 115.47 14.4723 115.215 14.4003L113.322 13.8686C112.357 13.5987 111.624 13.1701 111.12 12.5812C110.616 11.9923 110.365 11.302 110.365 10.507C110.365 9.79867 110.546 9.17705 110.908 8.6454C111.269 8.11375 111.773 7.69825 112.418 7.40053C113.062 7.10281 113.803 6.95394 114.641 6.95394C115.732 6.95394 116.697 7.21568 117.533 7.74078C118.369 8.26589 118.964 9.00365 119.319 9.95243L117.193 10.9519C116.995 10.4268 116.661 10.013 116.193 9.70706C115.725 9.40279 115.2 9.24902 114.619 9.24902C114.152 9.24902 113.782 9.35208 113.514 9.5582C113.244 9.76431 113.109 10.044 113.109 10.399L113.108 10.4039ZM130.57 9.05272C130.938 9.71197 131.123 10.4743 131.123 11.3396V18.7843H128.337V11.9989C128.337 11.4885 128.238 11.0484 128.04 10.6804C127.842 10.3123 127.569 10.0277 127.22 9.82975C126.872 9.63181 126.464 9.53202 125.997 9.53202C125.529 9.53202 125.138 9.63181 124.784 9.82975C124.429 10.0277 124.153 10.3123 123.955 10.6804C123.756 11.0501 123.657 11.4885 123.657 11.9989V18.7843H120.85V2.89707H123.657V8.36731C123.906 8.0156 124.222 7.72606 124.605 7.50195C125.221 7.14043 125.941 6.95885 126.764 6.95885C127.587 6.95885 128.37 7.1437 129.029 7.51177C129.689 7.88146 130.202 8.39512 130.572 9.05436L130.57 9.05272ZM141.825 7.74405C140.902 7.21895 139.869 6.95722 138.72 6.95722C137.572 6.95722 136.558 7.21895 135.637 7.74405C134.714 8.26916 133.978 8.98565 133.425 9.89191C132.872 10.7998 132.596 11.8353 132.596 12.9967C132.596 14.1582 132.872 15.1953 133.425 16.1015C133.978 17.0094 134.719 17.7259 135.648 18.2494C136.577 18.7745 137.601 19.0362 138.722 19.0362C139.842 19.0362 140.884 18.7745 141.805 18.2494C142.726 17.7243 143.464 17.0094 144.017 16.1015C144.57 15.1937 144.846 14.1582 144.846 12.9967C144.846 11.8353 144.573 10.7818 144.027 9.88046C143.48 8.98075 142.748 8.26752 141.825 7.74242V7.74405ZM141.516 14.7961C141.239 15.3278 140.863 15.7433 140.389 16.041C139.913 16.3387 139.357 16.4876 138.719 16.4876C138.081 16.4876 137.541 16.3387 137.06 16.041C136.577 15.7433 136.198 15.3278 135.921 14.7961C135.645 14.2645 135.506 13.6658 135.506 12.9984C135.506 12.3309 135.645 11.7371 135.921 11.212C136.198 10.6869 136.577 10.2763 137.06 9.97861C137.542 9.68089 138.095 9.53202 138.719 9.53202C139.342 9.53202 139.913 9.68089 140.389 9.97861C140.863 10.2763 141.239 10.6886 141.516 11.212C141.792 11.7371 141.931 12.3326 141.931 12.9984C141.931 13.6641 141.792 14.2645 141.516 14.7961ZM157.838 9.93608C157.32 9.02819 156.623 8.30515 155.743 7.76696C154.863 7.22877 153.878 6.95885 152.787 6.95885C151.894 6.95885 151.107 7.13225 150.426 7.48068C149.881 7.75878 149.428 8.12848 149.065 8.58324V7.21404H146.428V23.1258H149.235V17.6752C149.577 18.0384 149.985 18.3328 150.459 18.552C151.161 18.8776 151.93 19.0411 152.767 19.0411C153.888 19.0411 154.887 18.7745 155.766 18.2429C156.644 17.7112 157.339 16.9849 157.85 16.0623C158.36 15.1413 158.615 14.1189 158.615 13C158.615 11.8811 158.357 10.844 157.838 9.93771V9.93608ZM155.296 14.8076C155.013 15.3327 154.625 15.7433 154.136 16.041C153.647 16.3387 153.083 16.4876 152.445 16.4876C151.807 16.4876 151.285 16.3387 150.796 16.041C150.307 15.7433 149.924 15.3327 149.648 14.8076C149.371 14.2825 149.232 13.6805 149.232 13C149.232 12.3195 149.371 11.7388 149.648 11.2137C149.924 10.6886 150.307 10.278 150.796 9.98024C151.285 9.68252 151.835 9.53366 152.445 9.53366C153.055 9.53366 153.647 9.68252 154.136 9.98024C154.625 10.278 155.011 10.6902 155.296 11.2137C155.579 11.7388 155.721 12.3342 155.721 13C155.721 13.6658 155.579 14.2841 155.296 14.8076Z" fill="white"/>
</svg>
