<svg width="123" height="35" viewBox="0 0 123 35" fill="none" xmlns="http://www.w3.org/2000/svg">
<g clip-path="url(#clip0_11594_892)">
<path d="M26.4204 6.64221C26.3958 6.47064 26.2482 6.3726 26.1252 6.3726C26.0022 6.3726 23.5668 6.32358 23.5668 6.32358C23.5668 6.32358 21.525 4.3628 21.3282 4.14221C21.1314 3.94613 20.7378 3.99515 20.5902 4.04417C20.5902 4.04417 20.1966 4.16672 19.557 4.3628C19.4586 4.01966 19.2864 3.603 19.065 3.16182C18.3516 1.78927 17.2692 1.05398 15.99 1.05398C15.8916 1.05398 15.8178 1.05398 15.7194 1.07849C15.6702 1.02947 15.6456 0.980448 15.5964 0.955938C15.0306 0.367703 14.3172 0.0735853 13.4562 0.0980951C11.808 0.147115 10.1598 1.3481 8.8068 3.45594C7.872 4.95104 7.1586 6.81378 6.9372 8.25986C5.043 8.84809 3.7146 9.26476 3.6654 9.26476C2.706 9.55888 2.6814 9.58339 2.5584 10.4903C2.5092 11.1765 0 30.5148 0 30.5148L21.0576 34.1422L30.1842 31.8873C30.1596 31.8873 26.445 6.81378 26.4204 6.64221ZM18.4992 4.70594C18.0072 4.853 17.466 5.02457 16.8756 5.22064C16.8756 4.38731 16.7526 3.21084 16.3836 2.23045C17.6382 2.42653 18.2532 3.8481 18.4992 4.70594ZM15.7686 5.53927C14.6616 5.88241 13.4562 6.25006 12.2508 6.6177C12.5952 5.31868 13.2348 4.04417 14.022 3.18633C14.3172 2.8677 14.7354 2.52457 15.2028 2.32849C15.6948 3.28437 15.7932 4.63241 15.7686 5.53927ZM13.5054 1.20104C13.899 1.20104 14.2188 1.27457 14.4894 1.47064C14.0466 1.69123 13.6038 2.03437 13.2102 2.47555C12.1524 3.603 11.3406 5.34319 11.0208 7.03437C10.0122 7.353 9.0282 7.64711 8.1426 7.91672C8.733 5.24515 10.9716 1.27457 13.5054 1.20104Z" fill="#95BF47"/>
<path d="M26.1252 6.37259C26.0022 6.37259 23.5668 6.32357 23.5668 6.32357C23.5668 6.32357 21.525 4.36279 21.3282 4.1422C21.2544 4.06867 21.156 4.01965 21.0576 4.01965V34.1422L30.1842 31.8873C30.1842 31.8873 26.4696 6.81377 26.445 6.6422C26.3958 6.47063 26.2482 6.37259 26.1252 6.37259Z" fill="#5E8E3E"/>
<path d="M15.99 11.054L14.9322 15.0001C14.9322 15.0001 13.7514 14.4609 12.3492 14.5589C10.2828 14.6814 10.2828 15.9805 10.2828 16.2991C10.4058 18.0638 15.0552 18.456 15.3258 22.5981C15.5226 25.8579 13.6038 28.0883 10.7994 28.2599C7.45377 28.4314 5.60876 26.4707 5.60876 26.4707L6.32217 23.456C6.32217 23.456 8.19176 24.853 9.66776 24.755C10.6272 24.706 10.9962 23.8971 10.947 23.3579C10.7994 21.054 7.01096 21.2011 6.76496 17.402C6.56816 14.2158 8.65916 11.005 13.284 10.7109C15.0798 10.5883 15.99 11.054 15.99 11.054Z" fill="white"/>
<path d="M42.5334 19.4608C41.4756 18.8971 40.9344 18.4069 40.9344 17.7451C40.9344 16.9118 41.697 16.3726 42.8778 16.3726C44.2554 16.3726 45.4854 16.9363 45.4854 16.9363L46.4448 13.9951C46.4448 13.9951 45.5592 13.3088 42.9516 13.3088C39.3108 13.3088 36.777 15.3922 36.777 18.3088C36.777 19.9755 37.9578 21.2255 39.5322 22.1324C40.8114 22.8432 41.2542 23.3579 41.2542 24.1177C41.2542 24.902 40.6146 25.5392 39.4338 25.5392C37.6872 25.5392 36.0144 24.6324 36.0144 24.6324L34.9812 27.5735C34.9812 27.5735 36.5064 28.603 39.0894 28.603C42.8286 28.603 45.5346 26.7647 45.5346 23.4559C45.51 21.6667 44.157 20.3922 42.5334 19.4608Z" fill="white"/>
<path d="M57.441 13.2597C55.596 13.2597 54.1446 14.1421 53.0376 15.4656L52.9884 15.4411L54.5874 7.10779H50.43L46.371 28.3333H50.5284L51.906 21.0784C52.4472 18.3333 53.874 16.6421 55.2024 16.6421C56.1372 16.6421 56.5062 17.2794 56.5062 18.1862C56.5062 18.7499 56.457 19.4607 56.334 20.0245L54.7596 28.3333H58.917L60.5406 19.7548C60.7128 18.848 60.8358 17.7696 60.8358 17.0343C60.8604 14.6813 59.6304 13.2597 57.441 13.2597Z" fill="white"/>
<path d="M70.2822 13.2598C65.2638 13.2598 61.9427 17.7696 61.9427 22.7941C61.9427 26.0049 63.9353 28.6029 67.6745 28.6029C72.5945 28.6029 75.9155 24.2156 75.9155 19.0686C75.9401 16.1029 74.1936 13.2598 70.2822 13.2598ZM68.2403 25.4411C66.8135 25.4411 66.2232 24.2402 66.2232 22.7205C66.2232 20.3431 67.4531 16.4705 69.7163 16.4705C71.1923 16.4705 71.6843 17.7451 71.6843 18.9706C71.6843 21.5196 70.4297 25.4411 68.2403 25.4411Z" fill="white"/>
<path d="M86.592 13.2598C83.7876 13.2598 82.1886 15.7353 82.1886 15.7353H82.1394L82.3854 13.5049H78.6954C78.5232 15 78.1788 17.3039 77.859 19.0196L74.9562 34.2156H79.1136L80.2698 28.0637H80.3682C80.3682 28.0637 81.2292 28.6029 82.8036 28.6029C87.699 28.6029 90.897 23.6029 90.897 18.5539C90.897 15.7598 89.6424 13.2598 86.592 13.2598ZM82.6068 25.4902C81.5244 25.4902 80.8848 24.8774 80.8848 24.8774L81.5736 21.0049C82.0656 18.4068 83.4186 16.6911 84.87 16.6911C86.1492 16.6911 86.5428 17.8676 86.5428 18.9706C86.5428 21.6666 84.9438 25.4902 82.6068 25.4902Z" fill="white"/>
<path d="M96.8502 7.30396C95.5218 7.30396 94.464 8.35788 94.464 9.70592C94.464 10.9314 95.2512 11.7892 96.432 11.7892H96.4812C97.785 11.7892 98.892 10.9069 98.9166 9.38729C98.9166 8.18631 98.1048 7.30396 96.8502 7.30396Z" fill="white"/>
<path d="M91.02 28.3088H95.1774L98.0064 13.6029H93.8244L91.02 28.3088Z" fill="white"/>
<path d="M108.609 13.5784H105.706L105.854 12.8922C106.1 11.4706 106.936 10.2206 108.338 10.2206C109.076 10.2206 109.667 10.4412 109.667 10.4412L110.479 7.18137C110.479 7.18137 109.765 6.81372 108.215 6.81372C106.739 6.81372 105.263 7.23039 104.132 8.18627C102.705 9.38725 102.041 11.1274 101.721 12.8922L101.598 13.5784H99.6546L99.0396 16.7157H100.983L98.769 28.3333H102.926L105.14 16.7157H108.019L108.609 13.5784Z" fill="white"/>
<path d="M118.646 13.6029C118.646 13.6029 116.038 20.147 114.882 23.7255H114.833C114.759 22.5735 113.8 13.6029 113.8 13.6029H109.421L111.93 27.1078C111.979 27.4019 111.955 27.598 111.832 27.7941C111.34 28.7255 110.528 29.6323 109.568 30.2941C108.781 30.8578 107.896 31.2255 107.207 31.4705L108.363 35C109.199 34.8284 110.971 34.1176 112.447 32.7451C114.341 30.9804 116.112 28.2353 117.908 24.5098L123 13.6029H118.646Z" fill="white"/>
</g>
<defs>
<clipPath id="clip0_11594_892">
<rect width="123" height="35" fill="white"/>
</clipPath>
</defs>
</svg>
