<svg width="84" height="39" viewBox="0 0 84 39" fill="none" xmlns="http://www.w3.org/2000/svg">
<g clip-path="url(#clip0_11595_930)">
<mask id="mask0_11595_930" style="mask-type:luminance" maskUnits="userSpaceOnUse" x="0" y="0" width="84" height="39">
<path d="M84 0.682373H0V38.3209H84V0.682373Z" fill="white"/>
</mask>
<g mask="url(#mask0_11595_930)">
<path d="M56.0132 5.60388C56.0132 9.95968 57.1599 13.5747 58.6973 16.9698C60.166 12.706 60.9855 9.19377 61.4023 5.60388H56.0132Z" fill="white"/>
<path d="M69.2275 5.60388L69.2004 5.79536C69.1774 5.95181 68.6329 9.69708 67.1708 14.8549C66.3983 17.5793 65.2743 21.0029 63.7303 24.5272C63.8079 24.7066 63.8756 24.7766 64.2411 24.7766H75.7743C76.5305 24.7766 77.2366 24.4003 77.6609 23.7733C79.4505 21.1287 84.0015 13.5178 84.0015 5.60388H69.2298H69.2275Z" fill="white"/>
<path d="M66.1101 11.2431C66.9316 7.84354 67.2547 5.5918 67.2547 5.5918H63.2676C63.0395 7.63457 62.6173 9.89397 62.0206 12.2726C61.9779 12.4422 61.9343 12.6129 61.8895 12.7847C61.3298 14.9369 60.6304 17.1799 59.8044 19.4436C59.5141 20.2402 59.2075 21.04 58.8867 21.8387C58.842 21.7918 58.7962 21.7435 58.7504 21.6944C58.721 21.6626 58.6914 21.633 58.6609 21.6002C57.9614 20.4843 56.9239 18.6482 55.9385 16.2269C55.9134 16.1645 55.8882 16.1022 55.8632 16.0398C55.728 15.7017 55.5926 15.3516 55.4606 14.9916C54.5069 12.3952 53.6679 9.24077 53.3285 5.65634V5.62571H47.0513V8.80858H49.7507C50.042 10.406 50.5384 12.5035 51.3776 14.8592C52.4567 17.8879 54.1021 21.342 56.6085 24.701C56.7056 24.8334 56.8126 24.9647 56.9248 25.0917C56.9881 25.1628 57.0536 25.2338 57.1201 25.3029C57.1813 25.3674 57.2445 25.4298 57.3078 25.4911C56.9849 26.188 56.6499 26.8806 56.3052 27.5677C56.1994 27.7778 56.0924 27.989 55.9855 28.198C55.3907 29.3545 54.7688 30.4935 54.1152 31.6019H57.7792C58.5932 30.3775 59.3429 29.1051 60.0325 27.8095C60.8017 26.3663 61.4957 24.8947 62.122 23.4307C62.9119 21.5849 63.5928 19.7501 64.1755 18.0005C64.2923 17.6493 64.4057 17.3014 64.5149 16.9577C64.6239 16.6142 64.7297 16.2739 64.8313 15.9391C65.1368 14.9336 65.4085 13.9686 65.6485 13.0604C65.8012 12.4849 65.9409 11.9324 66.0697 11.4061C66.0828 11.3514 66.097 11.2967 66.1101 11.2431Z" fill="white"/>
<path d="M57.0273 35.881C57.0273 37.2291 55.9383 38.3209 54.594 38.3209C53.2499 38.3209 52.1608 37.2279 52.1608 35.881C52.1608 34.5342 53.2499 33.441 54.594 33.441C55.9383 33.441 57.0273 34.5342 57.0273 35.881Z" fill="white"/>
<path d="M78.977 35.881C78.977 37.2291 77.8869 38.3209 76.5437 38.3209C75.2005 38.3209 74.1105 37.2279 74.1105 35.881C74.1105 34.5342 75.1994 33.441 76.5437 33.441C77.8881 33.441 78.977 34.5342 78.977 35.881Z" fill="white"/>
<path d="M9.32376 26.0457C5.26037 26.0457 2.86968 23.9451 2.86968 19.0312V8.72763H0V5.47802H2.8686V0.880413L6.8927 0.682373V5.47692H11.8726V8.72654H6.8927V18.9908C6.8927 21.6462 8.04822 22.6769 10.0003 22.6769C10.8372 22.6769 11.7133 22.5577 12.3113 22.4L12.5502 25.6497C11.5944 25.8883 10.5589 26.0457 9.32376 26.0457Z" fill="white"/>
<path d="M24.9623 5.00208C26.0774 5.00208 27.0736 5.12134 27.7917 5.27999L27.2341 8.64777C26.6362 8.44973 25.8789 8.37095 25.2416 8.37095C23.2492 8.37095 21.7359 8.80642 20.6197 9.40164V25.5709H16.5955V6.90371C18.6675 5.75485 21.8952 5.00208 24.9623 5.00208Z" fill="white"/>
<path d="M37.2157 26.0457C31.9969 26.0457 29.3672 23.5096 29.3672 20.0214C29.3672 15.8998 32.6744 13.8789 37.2157 13.8789C38.5699 13.8789 40.2032 14.0375 41.4385 14.3144V12.6502C41.4385 9.8765 39.9239 8.36986 36.7771 8.36986C34.9047 8.36986 32.9919 8.72655 31.4381 9.36006L30.6416 6.14984C32.275 5.47585 34.8251 5.00098 37.1764 5.00098C42.6343 5.00098 45.3839 7.81513 45.3839 12.8482V24.2218C43.7102 25.1738 40.9605 26.0457 37.2157 26.0457ZM41.4385 22.2021V17.0104C40.3232 16.7335 39.0881 16.5344 37.6926 16.5344C35.2221 16.5344 33.3901 17.4064 33.3901 19.8639C33.3901 21.9647 34.9036 23.0348 37.5737 23.0348C39.4066 23.0348 40.6812 22.6386 41.4385 22.2021Z" fill="white"/>
</g>
</g>
<defs>
<clipPath id="clip0_11595_930">
<rect width="84" height="39" fill="white"/>
</clipPath>
</defs>
</svg>
