<svg width="80" height="41" viewBox="0 0 80 41" fill="none" xmlns="http://www.w3.org/2000/svg">
<mask id="mask0_11594_865" style="mask-type:luminance" maskUnits="userSpaceOnUse" x="0" y="0" width="80" height="41">
<path d="M80 0.00830078H0V40.0083H80V0.00830078Z" fill="white"/>
</mask>
<g mask="url(#mask0_11594_865)">
<path d="M53.4429 7.48608C53.4429 14.9989 57.7286 22.1974 59.4643 24.6684C59.663 24.957 59.9269 25.1947 60.2347 25.3622C60.5425 25.5297 60.8855 25.6223 61.2358 25.6325H72.2072C72.5589 25.6295 72.9045 25.5399 73.2134 25.3718C73.5224 25.2037 73.7852 24.9621 73.9786 24.6684C75.7143 22.1474 80 14.9489 80 7.48608H53.4429Z" fill="#43A0D6"/>
<path d="M51.5571 32.1816C52.2071 31.1102 52.7928 30.0388 53.3357 28.9602C52.8071 30.0683 52.2132 31.144 51.5571 32.1816Z" fill="#002C6A"/>
<path d="M54.6215 26.3821C54.3001 27.0249 53.9787 27.7249 53.6572 28.3678C53.9787 27.7249 54.2858 27.0821 54.6215 26.3821Z" fill="#002C6A"/>
<path d="M64.1072 7.53589H60.2714C60.1357 8.72137 59.9214 9.9854 59.6571 11.3066C59.4857 12.1421 59.1786 13.7418 58.3857 16.4912C57.9857 17.8695 56.4357 22.2615 56.1072 22.9185C56.05 22.8614 55.4643 21.9044 55.2 21.4331C54.573 20.3297 54.0125 19.1898 53.5214 18.0195C53.4572 17.8624 53.0286 16.7269 52.9572 16.5269C52.7714 16.0128 52.4714 15.0987 52.3357 14.713C51.593 12.379 51.0974 9.97341 50.8572 7.53589H44.8357V10.5424H47.4214C47.7795 12.4987 48.3003 14.4217 48.9786 16.2913C50.0892 19.4805 51.6684 22.4866 53.6643 25.2109C53.7643 25.3538 54.2072 25.9251 54.3786 26.075L54.6357 26.3821C54.3143 27.0248 53.9929 27.7247 53.6714 28.3674C53.5643 28.5817 53.4572 28.7459 53.35 28.9602C52.7572 30.0385 52.1643 31.1597 51.5714 32.181H55.0714C55.7857 31.0026 56.5714 29.8171 57.2143 28.6102C59.1331 24.8648 60.7687 20.9809 62.1071 16.9911C63.0479 13.9036 63.7171 10.7398 64.1072 7.53589Z" fill="#002C6A"/>
<path d="M54.3572 36.266C54.3572 36.7236 54.2215 37.171 53.9672 37.5515C53.7129 37.932 53.3515 38.2286 52.9286 38.4038C52.5057 38.5789 52.0404 38.6247 51.5914 38.5354C51.1425 38.4462 50.7302 38.2257 50.4065 37.9021C50.0828 37.5785 49.8624 37.1662 49.7731 36.7174C49.6838 36.2685 49.7297 35.8034 49.9048 35.3806C50.08 34.9578 50.3766 34.5963 50.7572 34.3421C51.1378 34.0879 51.5852 33.9521 52.0429 33.9521C52.6556 33.9559 53.242 34.2009 53.6752 34.634C54.1084 35.0671 54.3535 35.6535 54.3572 36.266Z" fill="#002C6A"/>
<path d="M75.2714 36.2658C75.2714 36.7235 75.1356 37.1708 74.8813 37.5513C74.627 37.9318 74.2656 38.2284 73.8427 38.4035C73.4198 38.5787 72.9545 38.6245 72.5056 38.5352C72.0566 38.4459 71.6443 38.2255 71.3206 37.902C70.997 37.5784 70.7766 37.1661 70.6873 36.7172C70.598 36.2684 70.6438 35.8032 70.8189 35.3804C70.9941 34.9576 71.2907 34.5962 71.6713 34.342C72.0519 34.0877 72.4993 33.952 72.9571 33.952C73.2618 33.9491 73.564 34.007 73.8461 34.1223C74.1282 34.2376 74.3844 34.4079 74.5999 34.6233C74.8154 34.8388 74.9857 35.095 75.101 35.377C75.2163 35.659 75.2742 35.9612 75.2714 36.2658Z" fill="#002C6A"/>
<path d="M8.87143 26.9178C5 26.9178 2.74286 24.9325 2.74286 20.262V10.4925H0V7.42885H2.74286V3.07972L6.55714 2.86548V7.42885H11.2929V10.4925H6.55714V20.212C6.55714 22.7329 7.63571 23.697 9.51429 23.697C10.2581 23.6997 10.9993 23.611 11.7214 23.4328L11.9357 26.4893C10.9412 26.7835 9.90847 26.9279 8.87143 26.9178Z" fill="#002C6A"/>
<path d="M23.7642 6.94322C24.6668 6.93258 25.5677 7.02361 26.4499 7.21459L25.9142 10.4354C25.3071 10.2433 24.6722 10.154 24.0356 10.1711C22.5092 10.1441 20.9975 10.4742 19.6213 11.1352V26.4893H15.8071V8.77142C18.2836 7.55852 21.0065 6.93291 23.7642 6.94322Z" fill="#002C6A"/>
<path d="M35.4857 26.9178C30.4857 26.9178 28.0143 24.504 28.0143 21.2047C28.0143 17.2912 31.1857 15.3559 35.4857 15.3559C36.8398 15.3585 38.1899 15.5021 39.5143 15.7844V14.249C39.5143 11.6209 38.0857 10.1712 35.0571 10.1712C33.3056 10.1542 31.5679 10.4818 29.9428 11.1353L29.1928 8.07162C31.1907 7.3451 33.3027 6.9823 35.4285 7.0004C40.6428 7.0004 43.2285 9.68558 43.2285 14.4632V25.2539C40.823 26.4346 38.164 27.006 35.4857 26.9178ZM39.4643 23.2686V18.3267C38.2956 18.0395 37.0963 17.8956 35.8928 17.8982C33.5285 17.8982 31.8071 18.7052 31.8071 21.069C31.8071 23.0543 33.2357 24.0756 35.7857 24.0756C37.0617 24.1373 38.3313 23.8588 39.4643 23.2686Z" fill="#002C6A"/>
</g>
</svg>
